<ttFont>
    <TTGlyph name=".notdef" xMin="89" yMin="0" xMax="565" yMax="660">
      <contour>
        <pt x="89" y="660" on="1"/>
        <pt x="565" y="660" on="1"/>
        <pt x="565" y="0" on="1"/>
        <pt x="89" y="0" on="1"/>
      </contour>
      <contour>
        <pt x="281" y="340" on="1"/>
        <pt x="154" y="572" on="1"/>
        <pt x="154" y="110" on="1"/>
      </contour>
      <contour>
        <pt x="498" y="110" on="1"/>
        <pt x="498" y="572" on="1"/>
        <pt x="372" y="340" on="1"/>
      </contour>
      <contour>
        <pt x="454" y="58" on="1"/>
        <pt x="381" y="190" on="1"/>
        <pt x="329" y="293" on="1"/>
        <pt x="325" y="293" on="1"/>
        <pt x="271" y="190" on="1"/>
        <pt x="197" y="58" on="1"/>
      </contour>
      <contour>
        <pt x="329" y="387" on="1"/>
        <pt x="378" y="481" on="1"/>
        <pt x="444" y="600" on="1"/>
        <pt x="209" y="600" on="1"/>
        <pt x="275" y="481" on="1"/>
        <pt x="325" y="387" on="1"/>
      </contour>
    </TTGlyph>
    <TTGlyph name="u0E81" xMin="10" yMin="0" xMax="480" yMax="520">
      <contour>
        <pt x="210" y="360" on="1"/>
        <pt x="210" y="120" on="1"/>
        <pt x="210" y="0" on="0"/>
        <pt x="100" y="0" on="1"/>
        <pt x="67" y="0" on="0"/>
        <pt x="20" y="46" on="0"/>
        <pt x="20" y="80" on="1"/>
        <pt x="20" y="113" on="0"/>
        <pt x="44" y="137" on="1"/>
        <pt x="59" y="152" on="0"/>
        <pt x="78" y="157" on="1"/>
        <pt x="78" y="360" on="1"/>
        <pt x="78" y="394" on="0"/>
        <pt x="10" y="424" on="1"/>
        <pt x="50" y="520" on="1"/>
        <pt x="107" y="510" on="0"/>
        <pt x="143" y="490" on="1"/>
        <pt x="192" y="520" on="0"/>
        <pt x="279" y="520" on="1"/>
        <pt x="480" y="520" on="0"/>
        <pt x="480" y="360" on="1"/>
        <pt x="480" y="0" on="1"/>
        <pt x="348" y="0" on="1"/>
        <pt x="348" y="360" on="1"/>
        <pt x="348" y="414" on="0"/>
        <pt x="279" y="414" on="1"/>
        <pt x="210" y="414" on="0"/>
      </contour>
    </TTGlyph>
    <TTGlyph name="u0E82" xMin="50" yMin="0" xMax="461" yMax="520">
      <contour>
        <pt x="461" y="360" on="1"/>
        <pt x="461" y="210" on="0"/>
        <pt x="269" y="167" on="1"/>
        <pt x="183" y="148" on="0"/>
        <pt x="183" y="124" on="1"/>
        <pt x="183" y="109" on="0"/>
        <pt x="197" y="109" on="1"/>
        <pt x="212" y="109" on="0"/>
        <pt x="348" y="149" on="0"/>
        <pt x="392" y="149" on="1"/>
        <pt x="461" y="149" on="0"/>
        <pt x="461" y="92" on="1"/>
        <pt x="461" y="0" on="1"/>
        <pt x="329" y="0" on="1"/>
        <pt x="329" y="22" on="1"/>
        <pt x="329" y="34" on="0"/>
        <pt x="310" y="34" on="1"/>
        <pt x="291" y="34" on="0"/>
        <pt x="207" y="0" on="0"/>
        <pt x="177" y="0" on="1"/>
        <pt x="50" y="0" on="0"/>
        <pt x="50" y="124" on="1"/>
        <pt x="50" y="227" on="0"/>
        <pt x="245" y="271" on="1"/>
        <pt x="329" y="290" on="0"/>
        <pt x="329" y="360" on="1"/>
        <pt x="329" y="414" on="0"/>
        <pt x="256" y="414" on="1"/>
        <pt x="218" y="414" on="0"/>
        <pt x="199" y="400" on="1"/>
        <pt x="210" y="382" on="0"/>
        <pt x="210" y="360" on="1"/>
        <pt x="210" y="327" on="0"/>
        <pt x="163" y="280" on="0"/>
        <pt x="130" y="280" on="1"/>
        <pt x="97" y="280" on="0"/>
        <pt x="50" y="327" on="0"/>
        <pt x="50" y="360" on="1"/>
        <pt x="50" y="520" on="0"/>
        <pt x="256" y="520" on="1"/>
        <pt x="461" y="520" on="0"/>
      </contour>
    </TTGlyph>
    <TTGlyph name="u0E84" xMin="50" yMin="0" xMax="461" yMax="520">
      <contour>
        <pt x="182" y="172" on="1"/>
        <pt x="182" y="160" on="1"/>
        <pt x="212" y="158" on="0"/>
        <pt x="234" y="137" on="1"/>
        <pt x="257" y="113" on="0"/>
        <pt x="257" y="80" on="1"/>
        <pt x="257" y="47" on="0"/>
        <pt x="210" y="0" on="0"/>
        <pt x="177" y="0" on="1"/>
        <pt x="50" y="0" on="0"/>
        <pt x="50" y="107" on="1"/>
        <pt x="50" y="172" on="1"/>
        <pt x="50" y="238" on="0"/>
        <pt x="104" y="266" on="1"/>
        <pt x="50" y="294" on="0"/>
        <pt x="50" y="360" on="1"/>
        <pt x="50" y="520" on="0"/>
        <pt x="256" y="520" on="1"/>
        <pt x="461" y="520" on="0"/>
        <pt x="461" y="360" on="1"/>
        <pt x="461" y="0" on="1"/>
        <pt x="329" y="0" on="1"/>
        <pt x="329" y="360" on="1"/>
        <pt x="329" y="414" on="0"/>
        <pt x="256" y="414" on="1"/>
        <pt x="182" y="414" on="0"/>
        <pt x="182" y="360" on="1"/>
        <pt x="182" y="319" on="0"/>
        <pt x="263" y="319" on="1"/>
        <pt x="263" y="213" on="1"/>
        <pt x="182" y="213" on="0"/>
      </contour>
    </TTGlyph>
    <TTGlyph name="u0E87" xMin="-40" yMin="-200" xMax="200" yMax="520">
      <contour>
        <pt x="200" y="0" on="1"/>
        <pt x="200" y="-200" on="0"/>
        <pt x="-40" y="-200" on="1"/>
        <pt x="-40" y="-94" on="1"/>
        <pt x="68" y="-94" on="0"/>
        <pt x="68" y="0" on="1"/>
        <pt x="68" y="363" on="1"/>
        <pt x="49" y="368" on="0"/>
        <pt x="34" y="384" on="1"/>
        <pt x="10" y="407" on="0"/>
        <pt x="10" y="440" on="1"/>
        <pt x="10" y="474" on="0"/>
        <pt x="57" y="520" on="0"/>
        <pt x="90" y="520" on="1"/>
        <pt x="200" y="520" on="0"/>
        <pt x="200" y="400" on="1"/>
      </contour>
    </TTGlyph>
    <TTGlyph name="u0E88" xMin="50" yMin="0" xMax="461" yMax="520">
      <contour>
        <pt x="329" y="217" on="1"/>
        <pt x="329" y="360" on="1"/>
        <pt x="329" y="414" on="0"/>
        <pt x="256" y="414" on="1"/>
        <pt x="182" y="414" on="0"/>
        <pt x="182" y="360" on="1"/>
        <pt x="50" y="360" on="1"/>
        <pt x="50" y="520" on="0"/>
        <pt x="256" y="520" on="1"/>
        <pt x="461" y="520" on="0"/>
        <pt x="461" y="360" on="1"/>
        <pt x="461" y="0" on="1"/>
        <pt x="329" y="0" on="1"/>
        <pt x="329" y="27" on="1"/>
        <pt x="329" y="137" on="0"/>
        <pt x="260" y="171" on="1"/>
        <pt x="255" y="163" on="0"/>
        <pt x="248" y="156" on="1"/>
        <pt x="224" y="132" on="0"/>
        <pt x="191" y="132" on="1"/>
        <pt x="158" y="132" on="0"/>
        <pt x="111" y="179" on="0"/>
        <pt x="111" y="212" on="1"/>
        <pt x="111" y="245" on="0"/>
        <pt x="158" y="292" on="0"/>
        <pt x="191" y="292" on="1"/>
        <pt x="207" y="292" on="1"/>
        <pt x="277" y="292" on="0"/>
      </contour>
    </TTGlyph>
    <TTGlyph name="u0E8A" xMin="50" yMin="-200" xMax="461" yMax="520">
      <contour>
        <pt x="461" y="-200" on="1"/>
        <pt x="329" y="-200" on="1"/>
        <pt x="329" y="22" on="1"/>
        <pt x="329" y="34" on="0"/>
        <pt x="310" y="34" on="1"/>
        <pt x="291" y="34" on="0"/>
        <pt x="207" y="0" on="0"/>
        <pt x="177" y="0" on="1"/>
        <pt x="50" y="0" on="0"/>
        <pt x="50" y="124" on="1"/>
        <pt x="50" y="227" on="0"/>
        <pt x="245" y="271" on="1"/>
        <pt x="329" y="290" on="0"/>
        <pt x="329" y="360" on="1"/>
        <pt x="329" y="414" on="0"/>
        <pt x="256" y="414" on="1"/>
        <pt x="218" y="414" on="0"/>
        <pt x="199" y="400" on="1"/>
        <pt x="210" y="382" on="0"/>
        <pt x="210" y="360" on="1"/>
        <pt x="210" y="327" on="0"/>
        <pt x="163" y="280" on="0"/>
        <pt x="130" y="280" on="1"/>
        <pt x="97" y="280" on="0"/>
        <pt x="50" y="327" on="0"/>
        <pt x="50" y="360" on="1"/>
        <pt x="50" y="520" on="0"/>
        <pt x="256" y="520" on="1"/>
        <pt x="461" y="520" on="0"/>
        <pt x="461" y="360" on="1"/>
        <pt x="461" y="210" on="0"/>
        <pt x="269" y="167" on="1"/>
        <pt x="183" y="148" on="0"/>
        <pt x="183" y="124" on="1"/>
        <pt x="183" y="109" on="0"/>
        <pt x="197" y="109" on="1"/>
        <pt x="212" y="109" on="0"/>
        <pt x="348" y="149" on="0"/>
        <pt x="392" y="149" on="1"/>
        <pt x="461" y="149" on="0"/>
        <pt x="461" y="92" on="1"/>
      </contour>
    </TTGlyph>
    <TTGlyph name="u0E8D" xMin="50" yMin="0" xMax="461" yMax="520">
      <contour>
        <pt x="182" y="307" on="0"/>
        <pt x="263" y="307" on="1"/>
        <pt x="263" y="201" on="1"/>
        <pt x="182" y="201" on="0"/>
        <pt x="182" y="160" on="1"/>
        <pt x="182" y="106" on="0"/>
        <pt x="256" y="106" on="1"/>
        <pt x="329" y="106" on="0"/>
        <pt x="329" y="160" on="1"/>
        <pt x="329" y="520" on="1"/>
        <pt x="461" y="520" on="1"/>
        <pt x="461" y="160" on="1"/>
        <pt x="461" y="0" on="0"/>
        <pt x="256" y="0" on="1"/>
        <pt x="50" y="0" on="0"/>
        <pt x="50" y="160" on="1"/>
        <pt x="50" y="226" on="0"/>
        <pt x="104" y="254" on="1"/>
        <pt x="50" y="282" on="0"/>
        <pt x="50" y="348" on="1"/>
        <pt x="50" y="413" on="1"/>
        <pt x="50" y="520" on="0"/>
        <pt x="177" y="520" on="1"/>
        <pt x="210" y="520" on="0"/>
        <pt x="257" y="473" on="0"/>
        <pt x="257" y="440" on="1"/>
        <pt x="257" y="407" on="0"/>
        <pt x="234" y="383" on="1"/>
        <pt x="212" y="362" on="0"/>
        <pt x="182" y="360" on="1"/>
        <pt x="182" y="348" on="1"/>
      </contour>
    </TTGlyph>
    <TTGlyph name="u0E94" xMin="50" yMin="0" xMax="461" yMax="520">
      <contour>
        <pt x="182" y="160" on="1"/>
        <pt x="212" y="158" on="0"/>
        <pt x="234" y="137" on="1"/>
        <pt x="257" y="113" on="0"/>
        <pt x="257" y="80" on="1"/>
        <pt x="257" y="47" on="0"/>
        <pt x="210" y="0" on="0"/>
        <pt x="177" y="0" on="1"/>
        <pt x="50" y="0" on="0"/>
        <pt x="50" y="107" on="1"/>
        <pt x="50" y="360" on="1"/>
        <pt x="50" y="520" on="0"/>
        <pt x="256" y="520" on="1"/>
        <pt x="461" y="520" on="0"/>
        <pt x="461" y="360" on="1"/>
        <pt x="461" y="0" on="1"/>
        <pt x="329" y="0" on="1"/>
        <pt x="329" y="360" on="1"/>
        <pt x="329" y="414" on="0"/>
        <pt x="256" y="414" on="1"/>
        <pt x="182" y="414" on="0"/>
        <pt x="182" y="360" on="1"/>
      </contour>
    </TTGlyph>
    <TTGlyph name="u0E95" xMin="50" yMin="0" xMax="461" yMax="520">
      <contour>
        <pt x="461" y="0" on="1"/>
        <pt x="329" y="0" on="1"/>
        <pt x="329" y="360" on="1"/>
        <pt x="329" y="414" on="0"/>
        <pt x="320" y="414" on="1"/>
        <pt x="293" y="414" on="0"/>
        <pt x="271" y="360" on="1"/>
        <pt x="240" y="360" on="1"/>
        <pt x="218" y="414" on="0"/>
        <pt x="191" y="414" on="1"/>
        <pt x="182" y="414" on="0"/>
        <pt x="182" y="360" on="1"/>
        <pt x="182" y="160" on="1"/>
        <pt x="212" y="158" on="0"/>
        <pt x="234" y="137" on="1"/>
        <pt x="257" y="113" on="0"/>
        <pt x="257" y="80" on="1"/>
        <pt x="257" y="47" on="0"/>
        <pt x="210" y="0" on="0"/>
        <pt x="177" y="0" on="1"/>
        <pt x="50" y="0" on="0"/>
        <pt x="50" y="107" on="1"/>
        <pt x="50" y="360" on="1"/>
        <pt x="50" y="520" on="0"/>
        <pt x="151" y="520" on="1"/>
        <pt x="225" y="520" on="0"/>
        <pt x="256" y="457" on="1"/>
        <pt x="286" y="520" on="0"/>
        <pt x="360" y="520" on="1"/>
        <pt x="461" y="520" on="0"/>
        <pt x="461" y="360" on="1"/>
      </contour>
    </TTGlyph>
    <TTGlyph name="u0E96" xMin="10" yMin="-200" xMax="480" yMax="520">
      <contour>
        <pt x="480" y="-200" on="1"/>
        <pt x="348" y="-200" on="1"/>
        <pt x="348" y="360" on="1"/>
        <pt x="348" y="414" on="0"/>
        <pt x="279" y="414" on="1"/>
        <pt x="210" y="414" on="0"/>
        <pt x="210" y="360" on="1"/>
        <pt x="210" y="157" on="1"/>
        <pt x="229" y="152" on="0"/>
        <pt x="244" y="137" on="1"/>
        <pt x="268" y="113" on="0"/>
        <pt x="268" y="80" on="1"/>
        <pt x="268" y="46" on="0"/>
        <pt x="221" y="0" on="0"/>
        <pt x="188" y="0" on="1"/>
        <pt x="78" y="0" on="0"/>
        <pt x="78" y="120" on="1"/>
        <pt x="78" y="360" on="1"/>
        <pt x="78" y="394" on="0"/>
        <pt x="10" y="424" on="1"/>
        <pt x="50" y="520" on="1"/>
        <pt x="107" y="510" on="0"/>
        <pt x="143" y="490" on="1"/>
        <pt x="192" y="520" on="0"/>
        <pt x="279" y="520" on="1"/>
        <pt x="480" y="520" on="0"/>
        <pt x="480" y="360" on="1"/>
      </contour>
    </TTGlyph>
    <TTGlyph name="u0E97" xMin="50" yMin="0" xMax="670" yMax="520">
      <contour>
        <pt x="101" y="365" on="1"/>
        <pt x="86" y="371" on="0"/>
        <pt x="74" y="384" on="1"/>
        <pt x="50" y="407" on="0"/>
        <pt x="50" y="440" on="1"/>
        <pt x="50" y="474" on="0"/>
        <pt x="97" y="520" on="0"/>
        <pt x="130" y="520" on="1"/>
        <pt x="239" y="520" on="0"/>
        <pt x="239" y="420" on="1"/>
        <pt x="239" y="347" on="0"/>
        <pt x="182" y="213" on="0"/>
        <pt x="182" y="160" on="1"/>
        <pt x="182" y="106" on="0"/>
        <pt x="246" y="106" on="1"/>
        <pt x="309" y="106" on="0"/>
        <pt x="309" y="160" on="1"/>
        <pt x="309" y="360" on="1"/>
        <pt x="309" y="520" on="0"/>
        <pt x="490" y="520" on="1"/>
        <pt x="670" y="520" on="0"/>
        <pt x="670" y="360" on="1"/>
        <pt x="670" y="0" on="1"/>
        <pt x="538" y="0" on="1"/>
        <pt x="538" y="360" on="1"/>
        <pt x="538" y="414" on="0"/>
        <pt x="490" y="414" on="1"/>
        <pt x="441" y="414" on="0"/>
        <pt x="441" y="360" on="1"/>
        <pt x="441" y="160" on="1"/>
        <pt x="441" y="0" on="0"/>
        <pt x="246" y="0" on="1"/>
        <pt x="50" y="0" on="0"/>
        <pt x="50" y="160" on="1"/>
        <pt x="50" y="247" on="0"/>
        <pt x="73" y="288" on="1"/>
        <pt x="93" y="325" on="0"/>
      </contour>
    </TTGlyph>
    <TTGlyph name="u0E99" xMin="10" yMin="0" xMax="480" yMax="520">
      <contour>
        <pt x="210" y="106" on="0"/>
        <pt x="279" y="106" on="1"/>
        <pt x="348" y="106" on="0"/>
        <pt x="348" y="160" on="1"/>
        <pt x="348" y="520" on="1"/>
        <pt x="480" y="520" on="1"/>
        <pt x="480" y="160" on="1"/>
        <pt x="480" y="0" on="0"/>
        <pt x="279" y="0" on="1"/>
        <pt x="192" y="0" on="0"/>
        <pt x="143" y="30" on="1"/>
        <pt x="107" y="10" on="0"/>
        <pt x="50" y="0" on="1"/>
        <pt x="10" y="96" on="1"/>
        <pt x="78" y="126" on="0"/>
        <pt x="78" y="160" on="1"/>
        <pt x="78" y="363" on="1"/>
        <pt x="59" y="368" on="0"/>
        <pt x="44" y="384" on="1"/>
        <pt x="20" y="407" on="0"/>
        <pt x="20" y="440" on="1"/>
        <pt x="20" y="474" on="0"/>
        <pt x="67" y="520" on="0"/>
        <pt x="100" y="520" on="1"/>
        <pt x="210" y="520" on="0"/>
        <pt x="210" y="400" on="1"/>
        <pt x="210" y="160" on="1"/>
      </contour>
    </TTGlyph>
    <TTGlyph name="u0E9A" xMin="50" yMin="0" xMax="461" yMax="520">
      <contour>
        <pt x="101" y="365" on="1"/>
        <pt x="86" y="371" on="0"/>
        <pt x="74" y="384" on="1"/>
        <pt x="50" y="407" on="0"/>
        <pt x="50" y="440" on="1"/>
        <pt x="50" y="474" on="0"/>
        <pt x="97" y="520" on="0"/>
        <pt x="130" y="520" on="1"/>
        <pt x="239" y="520" on="0"/>
        <pt x="239" y="420" on="1"/>
        <pt x="239" y="347" on="0"/>
        <pt x="182" y="213" on="0"/>
        <pt x="182" y="160" on="1"/>
        <pt x="182" y="106" on="0"/>
        <pt x="256" y="106" on="1"/>
        <pt x="329" y="106" on="0"/>
        <pt x="329" y="160" on="1"/>
        <pt x="329" y="520" on="1"/>
        <pt x="461" y="520" on="1"/>
        <pt x="461" y="160" on="1"/>
        <pt x="461" y="0" on="0"/>
        <pt x="256" y="0" on="1"/>
        <pt x="50" y="0" on="0"/>
        <pt x="50" y="160" on="1"/>
        <pt x="50" y="247" on="0"/>
        <pt x="73" y="288" on="1"/>
        <pt x="93" y="325" on="0"/>
      </contour>
    </TTGlyph>
    <TTGlyph name="u0E9B" xMin="50" yMin="0" xMax="461" yMax="720">
      <contour>
        <pt x="329" y="720" on="1"/>
        <pt x="461" y="720" on="1"/>
        <pt x="461" y="160" on="1"/>
        <pt x="461" y="0" on="0"/>
        <pt x="256" y="0" on="1"/>
        <pt x="50" y="0" on="0"/>
        <pt x="50" y="160" on="1"/>
        <pt x="50" y="247" on="0"/>
        <pt x="73" y="288" on="1"/>
        <pt x="93" y="325" on="0"/>
        <pt x="101" y="365" on="1"/>
        <pt x="86" y="371" on="0"/>
        <pt x="74" y="384" on="1"/>
        <pt x="50" y="407" on="0"/>
        <pt x="50" y="440" on="1"/>
        <pt x="50" y="474" on="0"/>
        <pt x="97" y="520" on="0"/>
        <pt x="130" y="520" on="1"/>
        <pt x="239" y="520" on="0"/>
        <pt x="239" y="420" on="1"/>
        <pt x="239" y="347" on="0"/>
        <pt x="182" y="213" on="0"/>
        <pt x="182" y="160" on="1"/>
        <pt x="182" y="106" on="0"/>
        <pt x="256" y="106" on="1"/>
        <pt x="329" y="106" on="0"/>
        <pt x="329" y="160" on="1"/>
      </contour>
    </TTGlyph>
    <TTGlyph name="u0E9C" xMin="50" yMin="0" xMax="531" yMax="520">
      <contour>
        <pt x="182" y="160" on="1"/>
        <pt x="182" y="106" on="0"/>
        <pt x="211" y="106" on="1"/>
        <pt x="240" y="106" on="0"/>
        <pt x="240" y="170" on="1"/>
        <pt x="240" y="250" on="1"/>
        <pt x="342" y="250" on="1"/>
        <pt x="342" y="170" on="1"/>
        <pt x="342" y="106" on="0"/>
        <pt x="371" y="106" on="1"/>
        <pt x="399" y="106" on="0"/>
        <pt x="399" y="160" on="1"/>
        <pt x="399" y="340" on="1"/>
        <pt x="399" y="380" on="0"/>
        <pt x="339" y="414" on="0"/>
        <pt x="339" y="483" on="1"/>
        <pt x="339" y="520" on="0"/>
        <pt x="380" y="520" on="1"/>
        <pt x="531" y="520" on="1"/>
        <pt x="531" y="414" on="1"/>
        <pt x="449" y="414" on="1"/>
        <pt x="531" y="388" on="0"/>
        <pt x="531" y="340" on="1"/>
        <pt x="531" y="160" on="1"/>
        <pt x="531" y="0" on="0"/>
        <pt x="371" y="0" on="1"/>
        <pt x="314" y="0" on="0"/>
        <pt x="291" y="63" on="1"/>
        <pt x="258" y="0" on="0"/>
        <pt x="211" y="0" on="1"/>
        <pt x="50" y="0" on="0"/>
        <pt x="50" y="160" on="1"/>
        <pt x="50" y="413" on="1"/>
        <pt x="50" y="520" on="0"/>
        <pt x="177" y="520" on="1"/>
        <pt x="210" y="520" on="0"/>
        <pt x="257" y="473" on="0"/>
        <pt x="257" y="440" on="1"/>
        <pt x="257" y="407" on="0"/>
        <pt x="234" y="383" on="1"/>
        <pt x="212" y="362" on="0"/>
        <pt x="182" y="360" on="1"/>
      </contour>
    </TTGlyph>
    <TTGlyph name="u0E9D" xMin="50" yMin="0" xMax="531" yMax="720">
      <contour>
        <pt x="399" y="720" on="1"/>
        <pt x="531" y="720" on="1"/>
        <pt x="531" y="160" on="1"/>
        <pt x="531" y="0" on="0"/>
        <pt x="371" y="0" on="1"/>
        <pt x="314" y="0" on="0"/>
        <pt x="291" y="63" on="1"/>
        <pt x="258" y="0" on="0"/>
        <pt x="211" y="0" on="1"/>
        <pt x="50" y="0" on="0"/>
        <pt x="50" y="160" on="1"/>
        <pt x="50" y="413" on="1"/>
        <pt x="50" y="520" on="0"/>
        <pt x="177" y="520" on="1"/>
        <pt x="210" y="520" on="0"/>
        <pt x="257" y="473" on="0"/>
        <pt x="257" y="440" on="1"/>
        <pt x="257" y="407" on="0"/>
        <pt x="234" y="383" on="1"/>
        <pt x="212" y="362" on="0"/>
        <pt x="182" y="360" on="1"/>
        <pt x="182" y="160" on="1"/>
        <pt x="182" y="106" on="0"/>
        <pt x="211" y="106" on="1"/>
        <pt x="240" y="106" on="0"/>
        <pt x="240" y="170" on="1"/>
        <pt x="240" y="250" on="1"/>
        <pt x="342" y="250" on="1"/>
        <pt x="342" y="170" on="1"/>
        <pt x="342" y="106" on="0"/>
        <pt x="371" y="106" on="1"/>
        <pt x="399" y="106" on="0"/>
        <pt x="399" y="160" on="1"/>
      </contour>
    </TTGlyph>
    <TTGlyph name="u0E9E" xMin="50" yMin="0" xMax="660" yMax="520">
      <contour>
        <pt x="363" y="26" on="1"/>
        <pt x="317" y="0" on="0"/>
        <pt x="241" y="0" on="1"/>
        <pt x="50" y="0" on="0"/>
        <pt x="50" y="160" on="1"/>
        <pt x="50" y="247" on="0"/>
        <pt x="73" y="288" on="1"/>
        <pt x="93" y="325" on="0"/>
        <pt x="101" y="365" on="1"/>
        <pt x="86" y="371" on="0"/>
        <pt x="74" y="384" on="1"/>
        <pt x="50" y="407" on="0"/>
        <pt x="50" y="440" on="1"/>
        <pt x="50" y="474" on="0"/>
        <pt x="97" y="520" on="0"/>
        <pt x="130" y="520" on="1"/>
        <pt x="239" y="520" on="0"/>
        <pt x="239" y="420" on="1"/>
        <pt x="239" y="347" on="0"/>
        <pt x="182" y="213" on="0"/>
        <pt x="182" y="160" on="1"/>
        <pt x="182" y="106" on="0"/>
        <pt x="241" y="106" on="1"/>
        <pt x="299" y="106" on="0"/>
        <pt x="299" y="160" on="1"/>
        <pt x="299" y="520" on="1"/>
        <pt x="431" y="520" on="1"/>
        <pt x="431" y="160" on="1"/>
        <pt x="431" y="106" on="0"/>
        <pt x="480" y="106" on="1"/>
        <pt x="528" y="106" on="0"/>
        <pt x="528" y="160" on="1"/>
        <pt x="528" y="520" on="1"/>
        <pt x="660" y="520" on="1"/>
        <pt x="660" y="160" on="1"/>
        <pt x="660" y="0" on="0"/>
        <pt x="480" y="0" on="1"/>
        <pt x="407" y="0" on="0"/>
      </contour>
    </TTGlyph>
    <TTGlyph name="u0E9F" xMin="50" yMin="0" xMax="660" yMax="720">
      <contour>
        <pt x="528" y="720" on="1"/>
        <pt x="660" y="720" on="1"/>
        <pt x="660" y="160" on="1"/>
        <pt x="660" y="0" on="0"/>
        <pt x="480" y="0" on="1"/>
        <pt x="407" y="0" on="0"/>
        <pt x="363" y="26" on="1"/>
        <pt x="317" y="0" on="0"/>
        <pt x="241" y="0" on="1"/>
        <pt x="50" y="0" on="0"/>
        <pt x="50" y="160" on="1"/>
        <pt x="50" y="247" on="0"/>
        <pt x="73" y="288" on="1"/>
        <pt x="93" y="325" on="0"/>
        <pt x="101" y="365" on="1"/>
        <pt x="86" y="371" on="0"/>
        <pt x="74" y="384" on="1"/>
        <pt x="50" y="407" on="0"/>
        <pt x="50" y="440" on="1"/>
        <pt x="50" y="474" on="0"/>
        <pt x="97" y="520" on="0"/>
        <pt x="130" y="520" on="1"/>
        <pt x="239" y="520" on="0"/>
        <pt x="239" y="420" on="1"/>
        <pt x="239" y="347" on="0"/>
        <pt x="182" y="213" on="0"/>
        <pt x="182" y="160" on="1"/>
        <pt x="182" y="106" on="0"/>
        <pt x="241" y="106" on="1"/>
        <pt x="299" y="106" on="0"/>
        <pt x="299" y="160" on="1"/>
        <pt x="299" y="520" on="1"/>
        <pt x="431" y="520" on="1"/>
        <pt x="431" y="160" on="1"/>
        <pt x="431" y="106" on="0"/>
        <pt x="480" y="106" on="1"/>
        <pt x="528" y="106" on="0"/>
        <pt x="528" y="160" on="1"/>
      </contour>
    </TTGlyph>
    <TTGlyph name="u0EA1" xMin="20" yMin="0" xMax="480" yMax="520">
      <contour>
        <pt x="78" y="520" on="1"/>
        <pt x="210" y="520" on="1"/>
        <pt x="210" y="160" on="1"/>
        <pt x="210" y="106" on="0"/>
        <pt x="279" y="106" on="1"/>
        <pt x="348" y="106" on="0"/>
        <pt x="348" y="160" on="1"/>
        <pt x="348" y="520" on="1"/>
        <pt x="480" y="520" on="1"/>
        <pt x="480" y="160" on="1"/>
        <pt x="480" y="0" on="0"/>
        <pt x="279" y="0" on="1"/>
        <pt x="213" y="0" on="0"/>
        <pt x="168" y="18" on="1"/>
        <pt x="142" y="0" on="0"/>
        <pt x="100" y="0" on="1"/>
        <pt x="67" y="0" on="0"/>
        <pt x="20" y="46" on="0"/>
        <pt x="20" y="80" on="1"/>
        <pt x="20" y="113" on="0"/>
        <pt x="44" y="136" on="1"/>
        <pt x="59" y="152" on="0"/>
        <pt x="78" y="157" on="1"/>
      </contour>
    </TTGlyph>
    <TTGlyph name="u0EA2" xMin="50" yMin="0" xMax="461" yMax="720">
      <contour>
        <pt x="329" y="720" on="1"/>
        <pt x="461" y="720" on="1"/>
        <pt x="461" y="160" on="1"/>
        <pt x="461" y="0" on="0"/>
        <pt x="256" y="0" on="1"/>
        <pt x="50" y="0" on="0"/>
        <pt x="50" y="160" on="1"/>
        <pt x="50" y="226" on="0"/>
        <pt x="104" y="254" on="1"/>
        <pt x="50" y="282" on="0"/>
        <pt x="50" y="348" on="1"/>
        <pt x="50" y="413" on="1"/>
        <pt x="50" y="520" on="0"/>
        <pt x="177" y="520" on="1"/>
        <pt x="210" y="520" on="0"/>
        <pt x="257" y="473" on="0"/>
        <pt x="257" y="440" on="1"/>
        <pt x="257" y="407" on="0"/>
        <pt x="234" y="383" on="1"/>
        <pt x="212" y="362" on="0"/>
        <pt x="182" y="360" on="1"/>
        <pt x="182" y="348" on="1"/>
        <pt x="182" y="307" on="0"/>
        <pt x="263" y="307" on="1"/>
        <pt x="263" y="201" on="1"/>
        <pt x="182" y="201" on="0"/>
        <pt x="182" y="160" on="1"/>
        <pt x="182" y="106" on="0"/>
        <pt x="256" y="106" on="1"/>
        <pt x="329" y="106" on="0"/>
        <pt x="329" y="160" on="1"/>
      </contour>
    </TTGlyph>
    <TTGlyph name="u0EA3" xMin="50" yMin="0" xMax="461" yMax="520">
      <contour>
        <pt x="182" y="380" on="1"/>
        <pt x="183" y="380" on="1"/>
        <pt x="183" y="352" on="0"/>
        <pt x="269" y="333" on="1"/>
        <pt x="461" y="290" on="0"/>
        <pt x="461" y="160" on="1"/>
        <pt x="461" y="0" on="0"/>
        <pt x="256" y="0" on="1"/>
        <pt x="50" y="0" on="0"/>
        <pt x="50" y="160" on="1"/>
        <pt x="50" y="193" on="0"/>
        <pt x="97" y="240" on="0"/>
        <pt x="130" y="240" on="1"/>
        <pt x="163" y="240" on="0"/>
        <pt x="210" y="193" on="0"/>
        <pt x="210" y="160" on="1"/>
        <pt x="210" y="138" on="0"/>
        <pt x="199" y="120" on="1"/>
        <pt x="218" y="106" on="0"/>
        <pt x="256" y="106" on="1"/>
        <pt x="329" y="106" on="0"/>
        <pt x="329" y="160" on="1"/>
        <pt x="329" y="220" on="0"/>
        <pt x="245" y="239" on="1"/>
        <pt x="50" y="283" on="0"/>
        <pt x="50" y="380" on="1"/>
        <pt x="50" y="520" on="0"/>
        <pt x="256" y="520" on="1"/>
        <pt x="461" y="520" on="0"/>
        <pt x="461" y="360" on="1"/>
        <pt x="329" y="360" on="1"/>
        <pt x="329" y="414" on="0"/>
        <pt x="256" y="414" on="1"/>
        <pt x="182" y="414" on="0"/>
      </contour>
    </TTGlyph>
    <TTGlyph name="u0EA5" xMin="50" yMin="0" xMax="461" yMax="520">
      <contour>
        <pt x="329" y="360" on="1"/>
        <pt x="329" y="414" on="0"/>
        <pt x="256" y="414" on="1"/>
        <pt x="182" y="414" on="0"/>
        <pt x="182" y="360" on="1"/>
        <pt x="50" y="360" on="1"/>
        <pt x="50" y="520" on="0"/>
        <pt x="256" y="520" on="1"/>
        <pt x="461" y="520" on="0"/>
        <pt x="461" y="360" on="1"/>
        <pt x="461" y="100" on="1"/>
        <pt x="461" y="0" on="0"/>
        <pt x="361" y="0" on="1"/>
        <pt x="277" y="0" on="0"/>
        <pt x="243" y="187" on="0"/>
        <pt x="208" y="187" on="1"/>
        <pt x="182" y="187" on="0"/>
        <pt x="182" y="160" on="1"/>
        <pt x="182" y="148" on="1"/>
        <pt x="190" y="143" on="0"/>
        <pt x="197" y="137" on="1"/>
        <pt x="220" y="113" on="0"/>
        <pt x="220" y="80" on="1"/>
        <pt x="220" y="47" on="0"/>
        <pt x="173" y="0" on="0"/>
        <pt x="140" y="0" on="1"/>
        <pt x="50" y="0" on="0"/>
        <pt x="50" y="100" on="1"/>
        <pt x="50" y="160" on="1"/>
        <pt x="50" y="293" on="0"/>
        <pt x="188" y="293" on="1"/>
        <pt x="300" y="293" on="0"/>
        <pt x="329" y="170" on="1"/>
      </contour>
    </TTGlyph>
    <TTGlyph name="u0EA7" xMin="50" yMin="0" xMax="461" yMax="520">
      <contour>
        <pt x="245" y="106" on="0"/>
        <pt x="256" y="106" on="1"/>
        <pt x="329" y="106" on="0"/>
        <pt x="329" y="160" on="1"/>
        <pt x="329" y="360" on="1"/>
        <pt x="329" y="414" on="0"/>
        <pt x="256" y="414" on="1"/>
        <pt x="182" y="414" on="0"/>
        <pt x="182" y="360" on="1"/>
        <pt x="50" y="360" on="1"/>
        <pt x="50" y="520" on="0"/>
        <pt x="256" y="520" on="1"/>
        <pt x="461" y="520" on="0"/>
        <pt x="461" y="360" on="1"/>
        <pt x="461" y="160" on="1"/>
        <pt x="461" y="0" on="0"/>
        <pt x="256" y="0" on="1"/>
        <pt x="50" y="0" on="0"/>
        <pt x="50" y="160" on="1"/>
        <pt x="50" y="243" on="0"/>
        <pt x="177" y="243" on="1"/>
        <pt x="210" y="243" on="0"/>
        <pt x="257" y="196" on="0"/>
        <pt x="257" y="163" on="1"/>
        <pt x="257" y="131" on="0"/>
        <pt x="235" y="107" on="1"/>
      </contour>
    </TTGlyph>
    <TTGlyph name="u0EAA" xMin="50" yMin="0" xMax="531" yMax="520">
      <contour>
        <pt x="329" y="366" on="1"/>
        <pt x="325" y="414" on="0"/>
        <pt x="256" y="414" on="1"/>
        <pt x="182" y="414" on="0"/>
        <pt x="182" y="385" on="1"/>
        <pt x="182" y="356" on="0"/>
        <pt x="256" y="356" on="1"/>
        <pt x="296" y="356" on="0"/>
      </contour>
      <contour>
        <pt x="50" y="100" on="1"/>
        <pt x="50" y="243" on="0"/>
        <pt x="188" y="243" on="1"/>
        <pt x="300" y="243" on="0"/>
        <pt x="329" y="140" on="1"/>
        <pt x="329" y="275" on="1"/>
        <pt x="295" y="270" on="0"/>
        <pt x="256" y="270" on="1"/>
        <pt x="50" y="270" on="0"/>
        <pt x="50" y="395" on="1"/>
        <pt x="50" y="520" on="0"/>
        <pt x="256" y="520" on="1"/>
        <pt x="384" y="520" on="0"/>
        <pt x="432" y="458" on="1"/>
        <pt x="445" y="485" on="0"/>
        <pt x="451" y="520" on="1"/>
        <pt x="531" y="500" on="1"/>
        <pt x="526" y="388" on="0"/>
        <pt x="461" y="331" on="1"/>
        <pt x="461" y="100" on="1"/>
        <pt x="461" y="0" on="0"/>
        <pt x="361" y="0" on="1"/>
        <pt x="277" y="0" on="0"/>
        <pt x="243" y="147" on="0"/>
        <pt x="208" y="147" on="1"/>
        <pt x="195" y="147" on="0"/>
        <pt x="188" y="135" on="1"/>
        <pt x="210" y="112" on="0"/>
        <pt x="210" y="80" on="1"/>
        <pt x="210" y="47" on="0"/>
        <pt x="163" y="0" on="0"/>
        <pt x="130" y="0" on="1"/>
        <pt x="96" y="0" on="0"/>
        <pt x="50" y="47" on="0"/>
        <pt x="50" y="80" on="1"/>
      </contour>
    </TTGlyph>
    <TTGlyph name="u0EAB" xMin="50" yMin="0" xMax="670" yMax="520">
      <contour>
        <pt x="309" y="286" on="1"/>
        <pt x="308" y="286" on="1"/>
        <pt x="308" y="360" on="1"/>
        <pt x="308" y="394" on="0"/>
        <pt x="260" y="424" on="1"/>
        <pt x="300" y="520" on="1"/>
        <pt x="337" y="513" on="0"/>
        <pt x="368" y="491" on="1"/>
        <pt x="412" y="520" on="0"/>
        <pt x="490" y="520" on="1"/>
        <pt x="670" y="520" on="0"/>
        <pt x="670" y="360" on="1"/>
        <pt x="670" y="0" on="1"/>
        <pt x="538" y="0" on="1"/>
        <pt x="538" y="360" on="1"/>
        <pt x="538" y="414" on="0"/>
        <pt x="490" y="414" on="1"/>
        <pt x="441" y="414" on="0"/>
        <pt x="441" y="360" on="1"/>
        <pt x="441" y="160" on="1"/>
        <pt x="441" y="0" on="0"/>
        <pt x="246" y="0" on="1"/>
        <pt x="50" y="0" on="0"/>
        <pt x="50" y="160" on="1"/>
        <pt x="50" y="247" on="0"/>
        <pt x="73" y="288" on="1"/>
        <pt x="93" y="325" on="0"/>
        <pt x="101" y="365" on="1"/>
        <pt x="86" y="371" on="0"/>
        <pt x="74" y="384" on="1"/>
        <pt x="50" y="407" on="0"/>
        <pt x="50" y="440" on="1"/>
        <pt x="50" y="474" on="0"/>
        <pt x="97" y="520" on="0"/>
        <pt x="130" y="520" on="1"/>
        <pt x="239" y="520" on="0"/>
        <pt x="239" y="420" on="1"/>
        <pt x="239" y="347" on="0"/>
        <pt x="182" y="213" on="0"/>
        <pt x="182" y="160" on="1"/>
        <pt x="182" y="106" on="0"/>
        <pt x="246" y="106" on="1"/>
        <pt x="309" y="106" on="0"/>
        <pt x="309" y="160" on="1"/>
      </contour>
    </TTGlyph>
    <TTGlyph name="u0EAD" xMin="50" yMin="0" xMax="461" yMax="520">
      <contour>
        <pt x="182" y="385" on="1"/>
        <pt x="182" y="356" on="0"/>
        <pt x="256" y="356" on="1"/>
        <pt x="317" y="356" on="0"/>
        <pt x="327" y="376" on="1"/>
        <pt x="317" y="414" on="0"/>
        <pt x="256" y="414" on="1"/>
        <pt x="182" y="414" on="0"/>
      </contour>
      <contour>
        <pt x="203" y="115" on="1"/>
        <pt x="221" y="106" on="0"/>
        <pt x="256" y="106" on="1"/>
        <pt x="329" y="106" on="0"/>
        <pt x="329" y="160" on="1"/>
        <pt x="329" y="255" on="1"/>
        <pt x="296" y="250" on="0"/>
        <pt x="256" y="250" on="1"/>
        <pt x="50" y="250" on="0"/>
        <pt x="50" y="385" on="1"/>
        <pt x="50" y="520" on="0"/>
        <pt x="256" y="520" on="1"/>
        <pt x="461" y="520" on="0"/>
        <pt x="461" y="360" on="1"/>
        <pt x="461" y="160" on="1"/>
        <pt x="461" y="0" on="0"/>
        <pt x="256" y="0" on="1"/>
        <pt x="50" y="0" on="0"/>
        <pt x="50" y="149" on="1"/>
        <pt x="50" y="182" on="0"/>
        <pt x="97" y="229" on="0"/>
        <pt x="130" y="229" on="1"/>
        <pt x="163" y="229" on="0"/>
        <pt x="210" y="182" on="0"/>
        <pt x="210" y="149" on="1"/>
        <pt x="210" y="130" on="0"/>
      </contour>
    </TTGlyph>
    <TTGlyph name="u0EAE" xMin="50" yMin="0" xMax="461" yMax="520">
      <contour>
        <pt x="461" y="0" on="0"/>
        <pt x="256" y="0" on="1"/>
        <pt x="50" y="0" on="0"/>
        <pt x="50" y="160" on="1"/>
        <pt x="50" y="193" on="0"/>
        <pt x="97" y="240" on="0"/>
        <pt x="130" y="240" on="1"/>
        <pt x="163" y="240" on="0"/>
        <pt x="210" y="193" on="0"/>
        <pt x="210" y="160" on="1"/>
        <pt x="210" y="138" on="0"/>
        <pt x="199" y="120" on="1"/>
        <pt x="218" y="106" on="0"/>
        <pt x="256" y="106" on="1"/>
        <pt x="329" y="106" on="0"/>
        <pt x="329" y="160" on="1"/>
        <pt x="329" y="230" on="0"/>
        <pt x="245" y="249" on="1"/>
        <pt x="50" y="293" on="0"/>
        <pt x="50" y="396" on="1"/>
        <pt x="50" y="520" on="0"/>
        <pt x="177" y="520" on="1"/>
        <pt x="207" y="520" on="0"/>
        <pt x="291" y="486" on="0"/>
        <pt x="310" y="486" on="1"/>
        <pt x="329" y="486" on="0"/>
        <pt x="329" y="498" on="1"/>
        <pt x="329" y="520" on="1"/>
        <pt x="461" y="520" on="1"/>
        <pt x="461" y="428" on="1"/>
        <pt x="461" y="371" on="0"/>
        <pt x="392" y="371" on="1"/>
        <pt x="348" y="371" on="0"/>
        <pt x="212" y="411" on="0"/>
        <pt x="197" y="411" on="1"/>
        <pt x="183" y="411" on="0"/>
        <pt x="183" y="396" on="1"/>
        <pt x="183" y="372" on="0"/>
        <pt x="269" y="353" on="1"/>
        <pt x="461" y="310" on="0"/>
        <pt x="461" y="160" on="1"/>
      </contour>
    </TTGlyph>
    <TTGlyph name="u0EAF" xMin="50" yMin="-139" xMax="613" yMax="520">
      <contour>
        <pt x="422" y="396" on="1"/>
        <pt x="503" y="520" on="1"/>
        <pt x="613" y="447" on="1"/>
        <pt x="229" y="-139" on="1"/>
        <pt x="119" y="-66" on="1"/>
        <pt x="322" y="244" on="1"/>
        <pt x="284" y="237" on="0"/>
        <pt x="241" y="237" on="1"/>
        <pt x="50" y="237" on="0"/>
        <pt x="50" y="420" on="1"/>
        <pt x="50" y="520" on="0"/>
        <pt x="152" y="520" on="1"/>
        <pt x="185" y="520" on="0"/>
        <pt x="232" y="474" on="0"/>
        <pt x="232" y="440" on="1"/>
        <pt x="232" y="407" on="0"/>
        <pt x="209" y="384" on="1"/>
        <pt x="201" y="376" on="0"/>
        <pt x="192" y="370" on="1"/>
        <pt x="206" y="343" on="0"/>
        <pt x="241" y="343" on="1"/>
        <pt x="350" y="343" on="0"/>
      </contour>
    </TTGlyph>
    <TTGlyph name="u0EB0" xMin="50" yMin="30" xMax="449" yMax="480">
      <contour>
        <pt x="50" y="267" on="0"/>
        <pt x="50" y="400" on="1"/>
        <pt x="50" y="433" on="0"/>
        <pt x="96" y="480" on="0"/>
        <pt x="130" y="480" on="1"/>
        <pt x="163" y="480" on="0"/>
        <pt x="210" y="433" on="0"/>
        <pt x="210" y="400" on="1"/>
        <pt x="210" y="376" on="0"/>
        <pt x="198" y="357" on="1"/>
        <pt x="289" y="357" on="1"/>
        <pt x="349" y="357" on="0"/>
        <pt x="349" y="457" on="1"/>
        <pt x="449" y="457" on="1"/>
        <pt x="449" y="267" on="0"/>
        <pt x="289" y="267" on="1"/>
        <pt x="198" y="267" on="1"/>
      </contour>
      <contour>
        <pt x="50" y="30" on="0"/>
        <pt x="50" y="163" on="1"/>
        <pt x="50" y="196" on="0"/>
        <pt x="96" y="243" on="0"/>
        <pt x="130" y="243" on="1"/>
        <pt x="163" y="243" on="0"/>
        <pt x="210" y="196" on="0"/>
        <pt x="210" y="163" on="1"/>
        <pt x="210" y="139" on="0"/>
        <pt x="198" y="120" on="1"/>
        <pt x="289" y="120" on="1"/>
        <pt x="349" y="120" on="0"/>
        <pt x="349" y="220" on="1"/>
        <pt x="449" y="220" on="1"/>
        <pt x="449" y="30" on="0"/>
        <pt x="289" y="30" on="1"/>
        <pt x="198" y="30" on="1"/>
      </contour>
    </TTGlyph>
    <TTGlyph name="u0EB1" xMin="-439" yMin="570" xMax="-40" yMax="783">
      <contour>
        <pt x="-439" y="570" on="0"/>
        <pt x="-439" y="703" on="1"/>
        <pt x="-439" y="736" on="0"/>
        <pt x="-393" y="783" on="0"/>
        <pt x="-359" y="783" on="1"/>
        <pt x="-326" y="783" on="0"/>
        <pt x="-279" y="736" on="0"/>
        <pt x="-279" y="703" on="1"/>
        <pt x="-279" y="679" on="0"/>
        <pt x="-291" y="660" on="1"/>
        <pt x="-200" y="660" on="1"/>
        <pt x="-140" y="660" on="0"/>
        <pt x="-140" y="760" on="1"/>
        <pt x="-40" y="760" on="1"/>
        <pt x="-40" y="570" on="0"/>
        <pt x="-200" y="570" on="1"/>
        <pt x="-291" y="570" on="1"/>
      </contour>
    </TTGlyph>
    <TTGlyph name="u0EB2" xMin="10" yMin="0" xMax="200" yMax="520">
      <contour>
        <pt x="68" y="0" on="1"/>
        <pt x="68" y="363" on="1"/>
        <pt x="49" y="368" on="0"/>
        <pt x="34" y="384" on="1"/>
        <pt x="10" y="407" on="0"/>
        <pt x="10" y="440" on="1"/>
        <pt x="10" y="474" on="0"/>
        <pt x="57" y="520" on="0"/>
        <pt x="90" y="520" on="1"/>
        <pt x="200" y="520" on="0"/>
        <pt x="200" y="400" on="1"/>
        <pt x="200" y="0" on="1"/>
      </contour>
    </TTGlyph>
    <TTGlyph name="u0EB3" xMin="-196" yMin="0" xMax="200" yMax="800">
      <contour>
        <pt x="-55" y="800" on="0"/>
        <pt x="4" y="742" on="0"/>
        <pt x="4" y="700" on="1"/>
        <pt x="4" y="659" on="0"/>
        <pt x="-55" y="600" on="0"/>
        <pt x="-96" y="600" on="1"/>
        <pt x="-137" y="600" on="0"/>
        <pt x="-196" y="659" on="0"/>
        <pt x="-196" y="700" on="1"/>
        <pt x="-196" y="742" on="0"/>
        <pt x="-137" y="800" on="0"/>
        <pt x="-96" y="800" on="1"/>
      </contour>
      <contour>
        <pt x="68" y="0" on="1"/>
        <pt x="68" y="363" on="1"/>
        <pt x="49" y="368" on="0"/>
        <pt x="34" y="384" on="1"/>
        <pt x="10" y="407" on="0"/>
        <pt x="10" y="440" on="1"/>
        <pt x="10" y="474" on="0"/>
        <pt x="57" y="520" on="0"/>
        <pt x="90" y="520" on="1"/>
        <pt x="200" y="520" on="0"/>
        <pt x="200" y="400" on="1"/>
        <pt x="200" y="0" on="1"/>
      </contour>
    </TTGlyph>
    <TTGlyph name="u0EB4" xMin="-430" yMin="580" xMax="-50" yMax="805">
      <contour>
        <pt x="-240" y="805" on="1"/>
        <pt x="-50" y="805" on="0"/>
        <pt x="-50" y="687" on="1"/>
        <pt x="-50" y="640" on="0"/>
        <pt x="-108" y="600" on="1"/>
        <pt x="-126" y="588" on="0"/>
        <pt x="-146" y="580" on="1"/>
        <pt x="-203" y="639" on="1"/>
        <pt x="-194" y="643" on="0"/>
        <pt x="-185" y="647" on="1"/>
        <pt x="-146" y="668" on="0"/>
        <pt x="-146" y="687" on="1"/>
        <pt x="-146" y="709" on="0"/>
        <pt x="-240" y="709" on="1"/>
        <pt x="-334" y="709" on="0"/>
        <pt x="-334" y="687" on="1"/>
        <pt x="-334" y="668" on="0"/>
        <pt x="-294" y="647" on="1"/>
        <pt x="-286" y="643" on="0"/>
        <pt x="-277" y="639" on="1"/>
        <pt x="-334" y="580" on="1"/>
        <pt x="-354" y="588" on="0"/>
        <pt x="-371" y="600" on="1"/>
        <pt x="-430" y="640" on="0"/>
        <pt x="-430" y="687" on="1"/>
        <pt x="-430" y="805" on="0"/>
      </contour>
    </TTGlyph>
    <TTGlyph name="u0EB5" xMin="-430" yMin="580" xMax="0" yMax="805">
      <contour>
        <pt x="-51" y="676" on="1"/>
        <pt x="0" y="676" on="1"/>
        <pt x="0" y="580" on="1"/>
        <pt x="-205" y="580" on="1"/>
        <pt x="-205" y="676" on="1"/>
        <pt x="-149" y="676" on="1"/>
        <pt x="-146" y="682" on="0"/>
        <pt x="-146" y="687" on="1"/>
        <pt x="-146" y="709" on="0"/>
        <pt x="-240" y="709" on="1"/>
        <pt x="-334" y="709" on="0"/>
        <pt x="-334" y="687" on="1"/>
        <pt x="-334" y="668" on="0"/>
        <pt x="-294" y="647" on="1"/>
        <pt x="-286" y="643" on="0"/>
        <pt x="-277" y="639" on="1"/>
        <pt x="-334" y="580" on="1"/>
        <pt x="-354" y="588" on="0"/>
        <pt x="-371" y="600" on="1"/>
        <pt x="-430" y="640" on="0"/>
        <pt x="-430" y="687" on="1"/>
        <pt x="-430" y="805" on="0"/>
        <pt x="-240" y="805" on="1"/>
        <pt x="-50" y="805" on="0"/>
        <pt x="-50" y="687" on="1"/>
        <pt x="-50" y="681" on="0"/>
      </contour>
    </TTGlyph>
    <TTGlyph name="u0EB6" xMin="-430" yMin="580" xMax="-50" yMax="805">
      <contour>
        <pt x="-240" y="805" on="1"/>
        <pt x="-50" y="805" on="0"/>
        <pt x="-50" y="687" on="1"/>
        <pt x="-50" y="640" on="0"/>
        <pt x="-108" y="600" on="1"/>
        <pt x="-126" y="588" on="0"/>
        <pt x="-146" y="580" on="1"/>
        <pt x="-203" y="639" on="1"/>
        <pt x="-194" y="643" on="0"/>
        <pt x="-185" y="647" on="1"/>
        <pt x="-146" y="668" on="0"/>
        <pt x="-146" y="687" on="1"/>
        <pt x="-146" y="739" on="0"/>
        <pt x="-240" y="739" on="1"/>
        <pt x="-334" y="739" on="0"/>
        <pt x="-334" y="687" on="1"/>
        <pt x="-334" y="668" on="0"/>
        <pt x="-294" y="647" on="1"/>
        <pt x="-286" y="643" on="0"/>
        <pt x="-277" y="639" on="1"/>
        <pt x="-334" y="580" on="1"/>
        <pt x="-354" y="588" on="0"/>
        <pt x="-371" y="600" on="1"/>
        <pt x="-430" y="640" on="0"/>
        <pt x="-430" y="687" on="1"/>
        <pt x="-430" y="805" on="0"/>
      </contour>
      <contour>
        <pt x="-222" y="726" on="0"/>
        <pt x="-197" y="702" on="0"/>
        <pt x="-197" y="684" on="1"/>
        <pt x="-197" y="667" on="0"/>
        <pt x="-222" y="642" on="0"/>
        <pt x="-240" y="642" on="1"/>
        <pt x="-258" y="642" on="0"/>
        <pt x="-283" y="667" on="0"/>
        <pt x="-283" y="684" on="1"/>
        <pt x="-283" y="702" on="0"/>
        <pt x="-258" y="726" on="0"/>
        <pt x="-240" y="726" on="1"/>
      </contour>
    </TTGlyph>
    <TTGlyph name="u0EB7" xMin="-430" yMin="580" xMax="0" yMax="805">
      <contour>
        <pt x="-197" y="702" on="0"/>
        <pt x="-197" y="684" on="1"/>
        <pt x="-197" y="667" on="0"/>
        <pt x="-222" y="642" on="0"/>
        <pt x="-240" y="642" on="1"/>
        <pt x="-258" y="642" on="0"/>
        <pt x="-283" y="667" on="0"/>
        <pt x="-283" y="684" on="1"/>
        <pt x="-283" y="702" on="0"/>
        <pt x="-258" y="726" on="0"/>
        <pt x="-240" y="726" on="1"/>
        <pt x="-222" y="726" on="0"/>
      </contour>
      <contour>
        <pt x="-149" y="676" on="1"/>
        <pt x="-146" y="682" on="0"/>
        <pt x="-146" y="687" on="1"/>
        <pt x="-146" y="739" on="0"/>
        <pt x="-240" y="739" on="1"/>
        <pt x="-334" y="739" on="0"/>
        <pt x="-334" y="687" on="1"/>
        <pt x="-334" y="668" on="0"/>
        <pt x="-294" y="647" on="1"/>
        <pt x="-286" y="643" on="0"/>
        <pt x="-277" y="639" on="1"/>
        <pt x="-334" y="580" on="1"/>
        <pt x="-354" y="588" on="0"/>
        <pt x="-371" y="600" on="1"/>
        <pt x="-430" y="640" on="0"/>
        <pt x="-430" y="687" on="1"/>
        <pt x="-430" y="805" on="0"/>
        <pt x="-240" y="805" on="1"/>
        <pt x="-50" y="805" on="0"/>
        <pt x="-50" y="687" on="1"/>
        <pt x="-50" y="681" on="0"/>
        <pt x="-51" y="676" on="1"/>
        <pt x="0" y="676" on="1"/>
        <pt x="0" y="580" on="1"/>
        <pt x="-182" y="580" on="1"/>
        <pt x="-182" y="617" on="1"/>
        <pt x="-203" y="639" on="1"/>
        <pt x="-194" y="643" on="0"/>
        <pt x="-185" y="647" on="1"/>
        <pt x="-183" y="648" on="0"/>
        <pt x="-182" y="649" on="1"/>
        <pt x="-182" y="676" on="1"/>
      </contour>
    </TTGlyph>
    <TTGlyph name="u0EB8" xMin="-280" yMin="-274" xMax="-80" yMax="-40">
      <contour>
        <pt x="-205" y="-90" on="1"/>
        <pt x="-215" y="-90" on="0"/>
        <pt x="-230" y="-104" on="0"/>
        <pt x="-230" y="-115" on="1"/>
        <pt x="-230" y="-125" on="0"/>
        <pt x="-215" y="-140" on="0"/>
        <pt x="-205" y="-140" on="1"/>
        <pt x="-194" y="-140" on="0"/>
        <pt x="-180" y="-125" on="0"/>
        <pt x="-180" y="-115" on="1"/>
        <pt x="-180" y="-104" on="0"/>
        <pt x="-194" y="-90" on="0"/>
      </contour>
      <contour>
        <pt x="-196" y="-190" on="1"/>
        <pt x="-205" y="-190" on="1"/>
        <pt x="-236" y="-190" on="0"/>
        <pt x="-280" y="-146" on="0"/>
        <pt x="-280" y="-115" on="1"/>
        <pt x="-280" y="-84" on="0"/>
        <pt x="-236" y="-40" on="0"/>
        <pt x="-205" y="-40" on="1"/>
        <pt x="-142" y="-40" on="1"/>
        <pt x="-80" y="-40" on="0"/>
        <pt x="-80" y="-115" on="1"/>
        <pt x="-80" y="-274" on="1"/>
        <pt x="-196" y="-274" on="1"/>
      </contour>
    </TTGlyph>
    <TTGlyph name="u0EB9" xMin="-416" yMin="-274" xMax="-50" yMax="-40">
      <contour>
        <pt x="-341" y="-90" on="1"/>
        <pt x="-351" y="-90" on="0"/>
        <pt x="-366" y="-104" on="0"/>
        <pt x="-366" y="-115" on="1"/>
        <pt x="-366" y="-125" on="0"/>
        <pt x="-351" y="-140" on="0"/>
        <pt x="-341" y="-140" on="1"/>
        <pt x="-330" y="-140" on="0"/>
        <pt x="-316" y="-125" on="0"/>
        <pt x="-316" y="-115" on="1"/>
        <pt x="-316" y="-104" on="0"/>
        <pt x="-330" y="-90" on="0"/>
      </contour>
      <contour>
        <pt x="-191" y="-274" on="1"/>
        <pt x="-332" y="-274" on="0"/>
        <pt x="-332" y="-190" on="1"/>
        <pt x="-341" y="-190" on="1"/>
        <pt x="-372" y="-190" on="0"/>
        <pt x="-416" y="-146" on="0"/>
        <pt x="-416" y="-115" on="1"/>
        <pt x="-416" y="-84" on="0"/>
        <pt x="-372" y="-40" on="0"/>
        <pt x="-341" y="-40" on="1"/>
        <pt x="-260" y="-40" on="0"/>
        <pt x="-216" y="-84" on="0"/>
        <pt x="-216" y="-115" on="1"/>
        <pt x="-216" y="-190" on="1"/>
        <pt x="-216" y="-208" on="0"/>
        <pt x="-191" y="-208" on="1"/>
        <pt x="-166" y="-208" on="0"/>
        <pt x="-166" y="-180" on="1"/>
        <pt x="-166" y="-40" on="1"/>
        <pt x="-50" y="-40" on="1"/>
        <pt x="-50" y="-180" on="1"/>
        <pt x="-50" y="-274" on="0"/>
      </contour>
    </TTGlyph>
    <TTGlyph name="u0EBB" xMin="-439" yMin="570" xMax="-40" yMax="783">
      <contour>
        <pt x="-291" y="783" on="1"/>
        <pt x="-200" y="783" on="1"/>
        <pt x="-40" y="783" on="0"/>
        <pt x="-40" y="593" on="1"/>
        <pt x="-140" y="593" on="1"/>
        <pt x="-140" y="693" on="0"/>
        <pt x="-200" y="693" on="1"/>
        <pt x="-291" y="693" on="1"/>
        <pt x="-279" y="674" on="0"/>
        <pt x="-279" y="650" on="1"/>
        <pt x="-279" y="617" on="0"/>
        <pt x="-326" y="570" on="0"/>
        <pt x="-359" y="570" on="1"/>
        <pt x="-393" y="570" on="0"/>
        <pt x="-439" y="617" on="0"/>
        <pt x="-439" y="650" on="1"/>
        <pt x="-439" y="783" on="0"/>
      </contour>
    </TTGlyph>
    <TTGlyph name="u0EBC" xMin="-524" yMin="-253" xMax="-74" yMax="-47">
      <contour>
        <pt x="-449" y="-143" on="1"/>
        <pt x="-461" y="-143" on="0"/>
        <pt x="-477" y="-160" on="0"/>
        <pt x="-477" y="-173" on="1"/>
        <pt x="-477" y="-185" on="0"/>
        <pt x="-461" y="-203" on="0"/>
        <pt x="-449" y="-203" on="1"/>
        <pt x="-437" y="-203" on="0"/>
        <pt x="-422" y="-185" on="0"/>
        <pt x="-422" y="-173" on="1"/>
        <pt x="-422" y="-160" on="0"/>
        <pt x="-437" y="-143" on="0"/>
      </contour>
      <contour>
        <pt x="-425" y="-49" on="1"/>
        <pt x="-326" y="-49" on="0"/>
        <pt x="-294" y="-98" on="1"/>
        <pt x="-262" y="-147" on="0"/>
        <pt x="-231" y="-147" on="1"/>
        <pt x="-206" y="-147" on="0"/>
        <pt x="-181" y="-91" on="1"/>
        <pt x="-161" y="-47" on="1"/>
        <pt x="-74" y="-99" on="1"/>
        <pt x="-94" y="-143" on="1"/>
        <pt x="-145" y="-253" on="0"/>
        <pt x="-231" y="-253" on="1"/>
        <pt x="-306" y="-253" on="0"/>
        <pt x="-329" y="-211" on="1"/>
        <pt x="-352" y="-170" on="0"/>
        <pt x="-379" y="-160" on="1"/>
        <pt x="-375" y="-172" on="0"/>
        <pt x="-375" y="-183" on="1"/>
        <pt x="-375" y="-206" on="0"/>
        <pt x="-418" y="-253" on="0"/>
        <pt x="-449" y="-253" on="1"/>
        <pt x="-480" y="-253" on="0"/>
        <pt x="-524" y="-206" on="0"/>
        <pt x="-524" y="-173" on="1"/>
        <pt x="-524" y="-49" on="0"/>
      </contour>
    </TTGlyph>
    <TTGlyph name="u0EBD" xMin="-190" yMin="-270" xMax="232" yMax="520">
      <contour>
        <pt x="-39" y="-156" on="1"/>
        <pt x="-27" y="-164" on="0"/>
        <pt x="-8" y="-164" on="1"/>
        <pt x="50" y="-164" on="0"/>
        <pt x="50" y="-110" on="1"/>
        <pt x="50" y="320" on="1"/>
        <pt x="50" y="384" on="0"/>
        <pt x="0" y="414" on="1"/>
        <pt x="0" y="520" on="1"/>
        <pt x="232" y="520" on="1"/>
        <pt x="232" y="414" on="1"/>
        <pt x="146" y="414" on="1"/>
        <pt x="182" y="376" on="0"/>
        <pt x="182" y="320" on="1"/>
        <pt x="182" y="-110" on="1"/>
        <pt x="182" y="-270" on="0"/>
        <pt x="-8" y="-270" on="1"/>
        <pt x="-190" y="-270" on="0"/>
        <pt x="-190" y="-120" on="1"/>
        <pt x="-190" y="-87" on="0"/>
        <pt x="-143" y="-40" on="0"/>
        <pt x="-110" y="-40" on="1"/>
        <pt x="-77" y="-40" on="0"/>
        <pt x="-30" y="-87" on="0"/>
        <pt x="-30" y="-120" on="1"/>
        <pt x="-30" y="-140" on="0"/>
      </contour>
    </TTGlyph>
    <TTGlyph name="u0EC0" xMin="50" yMin="0" xMax="257" yMax="520">
      <contour>
        <pt x="182" y="160" on="1"/>
        <pt x="212" y="158" on="0"/>
        <pt x="234" y="137" on="1"/>
        <pt x="257" y="113" on="0"/>
        <pt x="257" y="80" on="1"/>
        <pt x="257" y="47" on="0"/>
        <pt x="210" y="0" on="0"/>
        <pt x="177" y="0" on="1"/>
        <pt x="50" y="0" on="0"/>
        <pt x="50" y="107" on="1"/>
        <pt x="50" y="520" on="1"/>
        <pt x="182" y="520" on="1"/>
      </contour>
    </TTGlyph>
    <TTGlyph name="u0EC1" xMin="50" yMin="0" xMax="497" yMax="520">
      <contour>
        <pt x="422" y="160" on="1"/>
        <pt x="452" y="158" on="0"/>
        <pt x="474" y="137" on="1"/>
        <pt x="497" y="113" on="0"/>
        <pt x="497" y="80" on="1"/>
        <pt x="497" y="47" on="0"/>
        <pt x="450" y="0" on="0"/>
        <pt x="417" y="0" on="1"/>
        <pt x="290" y="0" on="0"/>
        <pt x="290" y="107" on="1"/>
        <pt x="290" y="520" on="1"/>
        <pt x="422" y="520" on="1"/>
      </contour>
      <contour>
        <pt x="182" y="160" on="1"/>
        <pt x="212" y="158" on="0"/>
        <pt x="234" y="137" on="1"/>
        <pt x="257" y="113" on="0"/>
        <pt x="257" y="80" on="1"/>
        <pt x="257" y="47" on="0"/>
        <pt x="210" y="0" on="0"/>
        <pt x="177" y="0" on="1"/>
        <pt x="50" y="0" on="0"/>
        <pt x="50" y="107" on="1"/>
        <pt x="50" y="520" on="1"/>
        <pt x="182" y="520" on="1"/>
      </contour>
    </TTGlyph>
    <TTGlyph name="u0EC2" xMin="-43" yMin="0" xMax="267" yMax="776">
      <contour>
        <pt x="182" y="160" on="1"/>
        <pt x="212" y="158" on="0"/>
        <pt x="234" y="137" on="1"/>
        <pt x="257" y="113" on="0"/>
        <pt x="257" y="80" on="1"/>
        <pt x="257" y="47" on="0"/>
        <pt x="210" y="0" on="0"/>
        <pt x="177" y="0" on="1"/>
        <pt x="50" y="0" on="0"/>
        <pt x="50" y="107" on="1"/>
        <pt x="50" y="400" on="1"/>
        <pt x="50" y="479" on="0"/>
        <pt x="100" y="490" on="1"/>
        <pt x="1" y="567" on="1"/>
        <pt x="-43" y="602" on="0"/>
        <pt x="-43" y="644" on="1"/>
        <pt x="-43" y="670" on="0"/>
        <pt x="-25" y="700" on="1"/>
        <pt x="21" y="776" on="0"/>
        <pt x="60" y="776" on="1"/>
        <pt x="92" y="776" on="0"/>
        <pt x="131" y="747" on="1"/>
        <pt x="180" y="711" on="1"/>
        <pt x="229" y="675" on="0"/>
        <pt x="267" y="675" on="1"/>
        <pt x="267" y="589" on="1"/>
        <pt x="208" y="589" on="0"/>
        <pt x="140" y="639" on="1"/>
        <pt x="92" y="674" on="1"/>
        <pt x="83" y="680" on="0"/>
        <pt x="75" y="680" on="1"/>
        <pt x="65" y="680" on="0"/>
        <pt x="58" y="670" on="1"/>
        <pt x="52" y="661" on="0"/>
        <pt x="52" y="654" on="1"/>
        <pt x="52" y="646" on="0"/>
        <pt x="60" y="640" on="1"/>
        <pt x="245" y="509" on="1"/>
        <pt x="229" y="440" on="1"/>
        <pt x="182" y="427" on="0"/>
        <pt x="182" y="400" on="1"/>
      </contour>
    </TTGlyph>
    <TTGlyph name="u0EC3" xMin="-53" yMin="0" xMax="267" yMax="766">
      <contour>
        <pt x="182" y="160" on="1"/>
        <pt x="212" y="158" on="0"/>
        <pt x="234" y="137" on="1"/>
        <pt x="257" y="113" on="0"/>
        <pt x="257" y="80" on="1"/>
        <pt x="257" y="47" on="0"/>
        <pt x="210" y="0" on="0"/>
        <pt x="177" y="0" on="1"/>
        <pt x="50" y="0" on="0"/>
        <pt x="50" y="107" on="1"/>
        <pt x="50" y="390" on="1"/>
        <pt x="50" y="461" on="0"/>
        <pt x="161" y="547" on="0"/>
        <pt x="161" y="591" on="1"/>
        <pt x="161" y="616" on="0"/>
        <pt x="137" y="660" on="0"/>
        <pt x="112" y="660" on="1"/>
        <pt x="87" y="660" on="0"/>
        <pt x="53" y="616" on="0"/>
        <pt x="53" y="591" on="1"/>
        <pt x="53" y="551" on="0"/>
        <pt x="68" y="521" on="1"/>
        <pt x="-22" y="479" on="1"/>
        <pt x="-53" y="527" on="0"/>
        <pt x="-53" y="591" on="1"/>
        <pt x="-53" y="664" on="0"/>
        <pt x="39" y="766" on="0"/>
        <pt x="112" y="766" on="1"/>
        <pt x="184" y="766" on="0"/>
        <pt x="267" y="664" on="0"/>
        <pt x="267" y="591" on="1"/>
        <pt x="267" y="511" on="0"/>
        <pt x="182" y="425" on="0"/>
        <pt x="182" y="390" on="1"/>
      </contour>
    </TTGlyph>
    <TTGlyph name="u0EC4" xMin="-110" yMin="0" xMax="267" yMax="759">
      <contour>
        <pt x="182" y="160" on="1"/>
        <pt x="212" y="158" on="0"/>
        <pt x="234" y="137" on="1"/>
        <pt x="257" y="113" on="0"/>
        <pt x="257" y="80" on="1"/>
        <pt x="257" y="47" on="0"/>
        <pt x="210" y="0" on="0"/>
        <pt x="177" y="0" on="1"/>
        <pt x="50" y="0" on="0"/>
        <pt x="50" y="107" on="1"/>
        <pt x="50" y="380" on="1"/>
        <pt x="50" y="448" on="0"/>
        <pt x="178" y="537" on="0"/>
        <pt x="178" y="553" on="1"/>
        <pt x="178" y="560" on="0"/>
        <pt x="174" y="567" on="1"/>
        <pt x="167" y="579" on="0"/>
        <pt x="154" y="579" on="1"/>
        <pt x="142" y="579" on="0"/>
        <pt x="50" y="529" on="0"/>
        <pt x="26" y="529" on="1"/>
        <pt x="-43" y="529" on="0"/>
        <pt x="-110" y="719" on="1"/>
        <pt x="-13" y="759" on="1"/>
        <pt x="28" y="639" on="0"/>
        <pt x="53" y="639" on="1"/>
        <pt x="58" y="639" on="0"/>
        <pt x="62" y="641" on="1"/>
        <pt x="88" y="653" on="1"/>
        <pt x="139" y="678" on="0"/>
        <pt x="168" y="678" on="1"/>
        <pt x="212" y="678" on="0"/>
        <pt x="251" y="610" on="1"/>
        <pt x="267" y="583" on="0"/>
        <pt x="267" y="558" on="1"/>
        <pt x="267" y="491" on="0"/>
        <pt x="182" y="409" on="0"/>
        <pt x="182" y="380" on="1"/>
      </contour>
    </TTGlyph>
    <TTGlyph name="u0EC6" xMin="50" yMin="-230" xMax="545" yMax="520">
      <contour>
        <pt x="50" y="369" on="1"/>
        <pt x="53" y="520" on="0"/>
        <pt x="160" y="520" on="1"/>
        <pt x="233" y="520" on="0"/>
        <pt x="265" y="459" on="1"/>
        <pt x="285" y="420" on="0"/>
        <pt x="293" y="420" on="1"/>
        <pt x="301" y="420" on="0"/>
        <pt x="321" y="459" on="1"/>
        <pt x="353" y="520" on="0"/>
        <pt x="426" y="520" on="1"/>
        <pt x="545" y="520" on="0"/>
        <pt x="545" y="360" on="1"/>
        <pt x="545" y="-70" on="1"/>
        <pt x="545" y="-230" on="0"/>
        <pt x="315" y="-230" on="1"/>
        <pt x="147" y="-230" on="0"/>
        <pt x="101" y="-146" on="1"/>
        <pt x="182" y="-63" on="1"/>
        <pt x="205" y="-124" on="0"/>
        <pt x="315" y="-124" on="1"/>
        <pt x="413" y="-124" on="0"/>
        <pt x="413" y="-70" on="1"/>
        <pt x="413" y="360" on="1"/>
        <pt x="413" y="414" on="0"/>
        <pt x="403" y="414" on="1"/>
        <pt x="392" y="414" on="0"/>
        <pt x="379" y="389" on="1"/>
        <pt x="340" y="314" on="0"/>
        <pt x="293" y="314" on="1"/>
        <pt x="246" y="314" on="0"/>
        <pt x="207" y="389" on="1"/>
        <pt x="210" y="379" on="0"/>
        <pt x="210" y="365" on="1"/>
        <pt x="210" y="331" on="0"/>
        <pt x="163" y="285" on="0"/>
        <pt x="130" y="285" on="1"/>
        <pt x="97" y="285" on="0"/>
        <pt x="73" y="308" on="1"/>
        <pt x="52" y="329" on="0"/>
        <pt x="50" y="360" on="1"/>
      </contour>
    </TTGlyph>
    <TTGlyph name="u0EC8" xMin="-258" yMin="814" xMax="-142" yMax="983">
      <contour>
        <pt x="-142" y="983" on="1"/>
        <pt x="-142" y="814" on="1"/>
        <pt x="-258" y="814" on="1"/>
        <pt x="-258" y="983" on="1"/>
      </contour>
    </TTGlyph>
    <TTGlyph name="u0EC8.b" xMin="-258" yMin="580" xMax="-142" yMax="805">
      <contour>
        <pt x="-142" y="805" on="1"/>
        <pt x="-142" y="580" on="1"/>
        <pt x="-258" y="580" on="1"/>
        <pt x="-258" y="805" on="1"/>
      </contour>
    </TTGlyph>
    <TTGlyph name="u0EC9" xMin="-370" yMin="809" xMax="-40" yMax="984">
      <contour>
        <pt x="-370" y="809" on="1"/>
        <pt x="-370" y="875" on="1"/>
        <pt x="-307" y="895" on="0"/>
        <pt x="-307" y="938" on="0"/>
        <pt x="-370" y="918" on="1"/>
        <pt x="-370" y="974" on="1"/>
        <pt x="-341" y="984" on="0"/>
        <pt x="-303" y="984" on="1"/>
        <pt x="-241" y="984" on="0"/>
        <pt x="-241" y="927" on="1"/>
        <pt x="-241" y="915" on="0"/>
        <pt x="-243" y="895" on="1"/>
        <pt x="-148" y="910" on="0"/>
        <pt x="-100" y="984" on="1"/>
        <pt x="-70" y="970" on="1"/>
        <pt x="-40" y="956" on="1"/>
        <pt x="-57" y="919" on="1"/>
        <pt x="-109" y="809" on="0"/>
        <pt x="-256" y="809" on="1"/>
      </contour>
    </TTGlyph>
    <TTGlyph name="u0EC9.b" xMin="-425" yMin="580" xMax="-23" yMax="815">
      <contour>
        <pt x="-281" y="686" on="1"/>
        <pt x="-239" y="686" on="1"/>
        <pt x="-171" y="686" on="0"/>
        <pt x="-123" y="815" on="1"/>
        <pt x="-23" y="777" on="1"/>
        <pt x="-92" y="580" on="0"/>
        <pt x="-239" y="580" on="1"/>
        <pt x="-425" y="580" on="1"/>
        <pt x="-425" y="646" on="1"/>
        <pt x="-402" y="669" on="1"/>
        <pt x="-425" y="692" on="0"/>
        <pt x="-425" y="725" on="1"/>
        <pt x="-425" y="759" on="0"/>
        <pt x="-379" y="805" on="0"/>
        <pt x="-345" y="805" on="1"/>
        <pt x="-312" y="805" on="0"/>
        <pt x="-265" y="759" on="0"/>
        <pt x="-265" y="725" on="1"/>
        <pt x="-265" y="723" on="1"/>
        <pt x="-265" y="707" on="0"/>
      </contour>
    </TTGlyph>
    <TTGlyph name="u0ECA" xMin="-399" yMin="809" xMax="33" yMax="984">
      <contour>
        <pt x="-59" y="906" on="1"/>
        <pt x="-23" y="937" on="0"/>
        <pt x="-23" y="984" on="1"/>
        <pt x="33" y="984" on="1"/>
        <pt x="33" y="881" on="0"/>
        <pt x="-83" y="832" on="1"/>
        <pt x="-140" y="809" on="1"/>
        <pt x="-183" y="855" on="1"/>
        <pt x="-176" y="858" on="0"/>
        <pt x="-145" y="877" on="0"/>
        <pt x="-145" y="892" on="1"/>
        <pt x="-145" y="913" on="0"/>
        <pt x="-155" y="913" on="1"/>
        <pt x="-214" y="862" on="0"/>
        <pt x="-229" y="862" on="1"/>
        <pt x="-243" y="862" on="0"/>
        <pt x="-303" y="913" on="1"/>
        <pt x="-313" y="913" on="0"/>
        <pt x="-313" y="892" on="1"/>
        <pt x="-313" y="877" on="0"/>
        <pt x="-282" y="858" on="0"/>
        <pt x="-274" y="855" on="1"/>
        <pt x="-317" y="809" on="1"/>
        <pt x="-334" y="815" on="0"/>
        <pt x="-349" y="825" on="1"/>
        <pt x="-399" y="856" on="0"/>
        <pt x="-399" y="892" on="1"/>
        <pt x="-399" y="984" on="0"/>
        <pt x="-314" y="984" on="1"/>
        <pt x="-288" y="984" on="1"/>
        <pt x="-229" y="930" on="1"/>
        <pt x="-169" y="984" on="1"/>
        <pt x="-144" y="984" on="1"/>
        <pt x="-66" y="984" on="0"/>
      </contour>
    </TTGlyph>
    <TTGlyph name="u0ECA.b" xMin="-475" yMin="580" xMax="33" yMax="805">
      <contour>
        <pt x="-76" y="705" on="1"/>
        <pt x="-33" y="745" on="0"/>
        <pt x="-33" y="805" on="1"/>
        <pt x="33" y="805" on="1"/>
        <pt x="33" y="672" on="0"/>
        <pt x="-103" y="610" on="1"/>
        <pt x="-171" y="580" on="1"/>
        <pt x="-218" y="639" on="1"/>
        <pt x="-209" y="643" on="0"/>
        <pt x="-200" y="647" on="1"/>
        <pt x="-161" y="668" on="0"/>
        <pt x="-161" y="687" on="1"/>
        <pt x="-161" y="719" on="0"/>
        <pt x="-188" y="719" on="1"/>
        <pt x="-258" y="674" on="0"/>
        <pt x="-275" y="674" on="1"/>
        <pt x="-291" y="674" on="0"/>
        <pt x="-362" y="719" on="1"/>
        <pt x="-389" y="719" on="0"/>
        <pt x="-389" y="687" on="1"/>
        <pt x="-389" y="668" on="0"/>
        <pt x="-349" y="647" on="1"/>
        <pt x="-341" y="643" on="0"/>
        <pt x="-332" y="639" on="1"/>
        <pt x="-379" y="580" on="1"/>
        <pt x="-399" y="588" on="0"/>
        <pt x="-416" y="600" on="1"/>
        <pt x="-475" y="640" on="0"/>
        <pt x="-475" y="687" on="1"/>
        <pt x="-475" y="805" on="0"/>
        <pt x="-375" y="805" on="1"/>
        <pt x="-345" y="805" on="1"/>
        <pt x="-275" y="755" on="1"/>
        <pt x="-205" y="805" on="1"/>
        <pt x="-175" y="805" on="1"/>
        <pt x="-83" y="805" on="0"/>
      </contour>
    </TTGlyph>
    <TTGlyph name="u0ECB" xMin="-379" yMin="794" xMax="-130" yMax="984">
      <contour>
        <pt x="-308" y="846" on="1"/>
        <pt x="-379" y="846" on="1"/>
        <pt x="-379" y="932" on="1"/>
        <pt x="-308" y="932" on="1"/>
        <pt x="-308" y="984" on="1"/>
        <pt x="-202" y="984" on="1"/>
        <pt x="-202" y="932" on="1"/>
        <pt x="-130" y="932" on="1"/>
        <pt x="-130" y="846" on="1"/>
        <pt x="-202" y="846" on="1"/>
        <pt x="-202" y="794" on="1"/>
        <pt x="-308" y="794" on="1"/>
      </contour>
    </TTGlyph>
    <TTGlyph name="u0ECB.b" xMin="-386" yMin="580" xMax="-121" yMax="805">
      <contour>
        <pt x="-307" y="640" on="1"/>
        <pt x="-386" y="640" on="1"/>
        <pt x="-386" y="746" on="1"/>
        <pt x="-307" y="746" on="1"/>
        <pt x="-307" y="805" on="1"/>
        <pt x="-201" y="805" on="1"/>
        <pt x="-201" y="746" on="1"/>
        <pt x="-121" y="746" on="1"/>
        <pt x="-121" y="640" on="1"/>
        <pt x="-201" y="640" on="1"/>
        <pt x="-201" y="580" on="1"/>
        <pt x="-307" y="580" on="1"/>
      </contour>
    </TTGlyph>
    <TTGlyph name="u0ECC" xMin="-354" yMin="809" xMax="-11" yMax="984">
      <contour>
        <pt x="-11" y="900" on="1"/>
        <pt x="-76" y="865" on="0"/>
        <pt x="-125" y="865" on="1"/>
        <pt x="-163" y="865" on="0"/>
        <pt x="-198" y="902" on="1"/>
        <pt x="-188" y="888" on="0"/>
        <pt x="-188" y="872" on="1"/>
        <pt x="-188" y="809" on="0"/>
        <pt x="-268" y="809" on="1"/>
        <pt x="-354" y="809" on="0"/>
        <pt x="-354" y="882" on="1"/>
        <pt x="-354" y="954" on="0"/>
        <pt x="-269" y="954" on="1"/>
        <pt x="-208" y="954" on="0"/>
        <pt x="-185" y="949" on="1"/>
        <pt x="-172" y="946" on="0"/>
        <pt x="-157" y="946" on="1"/>
        <pt x="-105" y="946" on="0"/>
        <pt x="-43" y="984" on="1"/>
      </contour>
    </TTGlyph>
    <TTGlyph name="u0ECC.b" xMin="-354" yMin="580" xMax="-1" yMax="805">
      <contour>
        <pt x="-1" y="709" on="1"/>
        <pt x="-66" y="674" on="0"/>
        <pt x="-135" y="674" on="1"/>
        <pt x="-173" y="674" on="0"/>
        <pt x="-198" y="700" on="1"/>
        <pt x="-188" y="681" on="0"/>
        <pt x="-188" y="661" on="1"/>
        <pt x="-188" y="650" on="0"/>
        <pt x="-190" y="639" on="1"/>
        <pt x="-199" y="607" on="0"/>
        <pt x="-228" y="591" on="1"/>
        <pt x="-248" y="580" on="0"/>
        <pt x="-268" y="580" on="1"/>
        <pt x="-279" y="580" on="0"/>
        <pt x="-289" y="583" on="1"/>
        <pt x="-321" y="592" on="0"/>
        <pt x="-337" y="621" on="1"/>
        <pt x="-354" y="651" on="0"/>
        <pt x="-354" y="676" on="1"/>
        <pt x="-354" y="718" on="0"/>
        <pt x="-288" y="766" on="0"/>
        <pt x="-249" y="766" on="1"/>
        <pt x="-208" y="766" on="0"/>
        <pt x="-185" y="760" on="1"/>
        <pt x="-172" y="756" on="0"/>
        <pt x="-157" y="756" on="1"/>
        <pt x="-105" y="756" on="0"/>
        <pt x="-43" y="805" on="1"/>
      </contour>
    </TTGlyph>
    <TTGlyph name="u0ECD" xMin="-300" yMin="600" xMax="-100" yMax="800">
      <contour>
        <pt x="-159" y="800" on="0"/>
        <pt x="-100" y="742" on="0"/>
        <pt x="-100" y="700" on="1"/>
        <pt x="-100" y="659" on="0"/>
        <pt x="-159" y="600" on="0"/>
        <pt x="-200" y="600" on="1"/>
        <pt x="-241" y="600" on="0"/>
        <pt x="-300" y="659" on="0"/>
        <pt x="-300" y="700" on="1"/>
        <pt x="-300" y="742" on="0"/>
        <pt x="-241" y="800" on="0"/>
        <pt x="-200" y="800" on="1"/>
      </contour>
    </TTGlyph>
    <TTGlyph name="u0ED0" xMin="50" yMin="0" xMax="511" yMax="520">
      <contour>
        <pt x="281" y="414" on="1"/>
        <pt x="182" y="414" on="0"/>
        <pt x="182" y="260" on="1"/>
        <pt x="182" y="106" on="0"/>
        <pt x="281" y="106" on="1"/>
        <pt x="379" y="106" on="0"/>
        <pt x="379" y="260" on="1"/>
        <pt x="379" y="414" on="0"/>
      </contour>
      <contour>
        <pt x="281" y="0" on="1"/>
        <pt x="50" y="0" on="0"/>
        <pt x="50" y="260" on="1"/>
        <pt x="50" y="520" on="0"/>
        <pt x="281" y="520" on="1"/>
        <pt x="511" y="520" on="0"/>
        <pt x="511" y="260" on="1"/>
        <pt x="511" y="0" on="0"/>
      </contour>
    </TTGlyph>
    <TTGlyph name="u0ED1" xMin="50" yMin="0" xMax="511" yMax="520">
      <contour>
        <pt x="182" y="334" on="1"/>
        <pt x="195" y="339" on="0"/>
        <pt x="210" y="339" on="1"/>
        <pt x="243" y="339" on="0"/>
        <pt x="290" y="292" on="0"/>
        <pt x="290" y="259" on="1"/>
        <pt x="290" y="225" on="0"/>
        <pt x="243" y="179" on="0"/>
        <pt x="210" y="179" on="1"/>
        <pt x="50" y="179" on="0"/>
        <pt x="50" y="342" on="1"/>
        <pt x="50" y="520" on="0"/>
        <pt x="279" y="520" on="1"/>
        <pt x="511" y="520" on="0"/>
        <pt x="511" y="271" on="1"/>
        <pt x="511" y="0" on="0"/>
        <pt x="190" y="0" on="1"/>
        <pt x="190" y="106" on="1"/>
        <pt x="379" y="106" on="0"/>
        <pt x="379" y="271" on="1"/>
        <pt x="379" y="414" on="0"/>
        <pt x="279" y="414" on="1"/>
        <pt x="182" y="414" on="0"/>
        <pt x="182" y="346" on="1"/>
      </contour>
    </TTGlyph>
    <TTGlyph name="u0ED2" xMin="50" yMin="0" xMax="511" yMax="701">
      <contour>
        <pt x="511" y="151" on="1"/>
        <pt x="511" y="0" on="0"/>
        <pt x="280" y="0" on="1"/>
        <pt x="50" y="0" on="0"/>
        <pt x="50" y="161" on="1"/>
        <pt x="50" y="286" on="1"/>
        <pt x="50" y="411" on="0"/>
        <pt x="369" y="613" on="0"/>
        <pt x="369" y="701" on="1"/>
        <pt x="511" y="701" on="1"/>
        <pt x="511" y="582" on="0"/>
        <pt x="182" y="380" on="0"/>
        <pt x="182" y="286" on="1"/>
        <pt x="182" y="161" on="1"/>
        <pt x="182" y="106" on="0"/>
        <pt x="280" y="106" on="1"/>
        <pt x="318" y="106" on="0"/>
        <pt x="346" y="121" on="1"/>
        <pt x="334" y="140" on="0"/>
        <pt x="334" y="164" on="1"/>
        <pt x="334" y="197" on="0"/>
        <pt x="381" y="244" on="0"/>
        <pt x="414" y="244" on="1"/>
        <pt x="511" y="244" on="0"/>
      </contour>
    </TTGlyph>
    <TTGlyph name="u0ED3" xMin="20" yMin="0" xMax="480" yMax="805">
      <contour>
        <pt x="480" y="160" on="1"/>
        <pt x="480" y="0" on="0"/>
        <pt x="279" y="0" on="1"/>
        <pt x="213" y="0" on="0"/>
        <pt x="168" y="18" on="1"/>
        <pt x="142" y="0" on="0"/>
        <pt x="100" y="0" on="1"/>
        <pt x="67" y="0" on="0"/>
        <pt x="20" y="46" on="0"/>
        <pt x="20" y="80" on="1"/>
        <pt x="20" y="113" on="0"/>
        <pt x="44" y="136" on="1"/>
        <pt x="59" y="152" on="0"/>
        <pt x="78" y="157" on="1"/>
        <pt x="78" y="520" on="1"/>
        <pt x="210" y="520" on="1"/>
        <pt x="210" y="160" on="1"/>
        <pt x="210" y="106" on="0"/>
        <pt x="279" y="106" on="1"/>
        <pt x="348" y="106" on="0"/>
        <pt x="348" y="160" on="1"/>
        <pt x="348" y="502" on="1"/>
        <pt x="348" y="523" on="0"/>
        <pt x="141" y="606" on="0"/>
        <pt x="81" y="662" on="0"/>
        <pt x="81" y="710" on="1"/>
        <pt x="81" y="768" on="0"/>
        <pt x="144" y="805" on="0"/>
        <pt x="177" y="805" on="1"/>
        <pt x="237" y="805" on="0"/>
        <pt x="291" y="778" on="1"/>
        <pt x="480" y="694" on="1"/>
        <pt x="444" y="622" on="1"/>
        <pt x="268" y="702" on="1"/>
        <pt x="204" y="728" on="0"/>
        <pt x="186" y="728" on="1"/>
        <pt x="178" y="728" on="0"/>
        <pt x="168" y="712" on="0"/>
        <pt x="168" y="707" on="1"/>
        <pt x="168" y="698" on="0"/>
        <pt x="183" y="680" on="0"/>
        <pt x="194" y="672" on="1"/>
        <pt x="399" y="577" on="1"/>
        <pt x="463" y="546" on="0"/>
        <pt x="480" y="500" on="1"/>
      </contour>
    </TTGlyph>
    <TTGlyph name="u0ED4" xMin="50" yMin="0" xMax="511" yMax="701">
      <contour>
        <pt x="260" y="0" on="1"/>
        <pt x="50" y="0" on="0"/>
        <pt x="50" y="161" on="1"/>
        <pt x="50" y="286" on="1"/>
        <pt x="50" y="411" on="0"/>
        <pt x="369" y="613" on="0"/>
        <pt x="369" y="701" on="1"/>
        <pt x="511" y="701" on="1"/>
        <pt x="511" y="582" on="0"/>
        <pt x="182" y="380" on="0"/>
        <pt x="182" y="286" on="1"/>
        <pt x="182" y="161" on="1"/>
        <pt x="182" y="106" on="0"/>
        <pt x="260" y="106" on="1"/>
        <pt x="298" y="106" on="0"/>
        <pt x="329" y="161" on="1"/>
        <pt x="329" y="283" on="1"/>
        <pt x="329" y="363" on="0"/>
        <pt x="431" y="363" on="1"/>
        <pt x="464" y="363" on="0"/>
        <pt x="511" y="316" on="0"/>
        <pt x="511" y="283" on="1"/>
        <pt x="511" y="250" on="0"/>
        <pt x="488" y="227" on="1"/>
        <pt x="475" y="214" on="0"/>
        <pt x="461" y="209" on="1"/>
        <pt x="461" y="162" on="1"/>
        <pt x="511" y="152" on="0"/>
        <pt x="511" y="76" on="1"/>
        <pt x="511" y="0" on="0"/>
        <pt x="443" y="0" on="1"/>
        <pt x="384" y="0" on="0"/>
        <pt x="349" y="51" on="1"/>
        <pt x="304" y="0" on="0"/>
      </contour>
    </TTGlyph>
    <TTGlyph name="u0ED5" xMin="50" yMin="0" xMax="511" yMax="701">
      <contour>
        <pt x="50" y="286" on="1"/>
        <pt x="50" y="386" on="0"/>
        <pt x="215" y="457" on="1"/>
        <pt x="194" y="481" on="0"/>
        <pt x="194" y="530" on="1"/>
        <pt x="194" y="564" on="0"/>
        <pt x="241" y="610" on="0"/>
        <pt x="274" y="610" on="1"/>
        <pt x="307" y="610" on="0"/>
        <pt x="354" y="564" on="0"/>
        <pt x="354" y="530" on="1"/>
        <pt x="354" y="518" on="0"/>
        <pt x="353" y="506" on="1"/>
        <pt x="379" y="521" on="0"/>
        <pt x="379" y="570" on="1"/>
        <pt x="379" y="701" on="1"/>
        <pt x="511" y="701" on="1"/>
        <pt x="511" y="570" on="1"/>
        <pt x="511" y="408" on="0"/>
        <pt x="320" y="395" on="1"/>
        <pt x="303" y="369" on="0"/>
        <pt x="273" y="356" on="1"/>
        <pt x="182" y="317" on="0"/>
        <pt x="182" y="286" on="1"/>
        <pt x="182" y="161" on="1"/>
        <pt x="182" y="106" on="0"/>
        <pt x="260" y="106" on="1"/>
        <pt x="298" y="106" on="0"/>
        <pt x="329" y="161" on="1"/>
        <pt x="329" y="283" on="1"/>
        <pt x="329" y="363" on="0"/>
        <pt x="431" y="363" on="1"/>
        <pt x="464" y="363" on="0"/>
        <pt x="511" y="316" on="0"/>
        <pt x="511" y="283" on="1"/>
        <pt x="511" y="250" on="0"/>
        <pt x="488" y="227" on="1"/>
        <pt x="475" y="214" on="0"/>
        <pt x="461" y="209" on="1"/>
        <pt x="461" y="162" on="1"/>
        <pt x="511" y="152" on="0"/>
        <pt x="511" y="76" on="1"/>
        <pt x="511" y="0" on="0"/>
        <pt x="443" y="0" on="1"/>
        <pt x="384" y="0" on="0"/>
        <pt x="349" y="51" on="1"/>
        <pt x="304" y="0" on="0"/>
        <pt x="260" y="0" on="1"/>
        <pt x="50" y="0" on="0"/>
        <pt x="50" y="161" on="1"/>
      </contour>
    </TTGlyph>
    <TTGlyph name="u0ED6" xMin="50" yMin="0" xMax="531" yMax="805">
      <contour>
        <pt x="531" y="160" on="1"/>
        <pt x="531" y="0" on="0"/>
        <pt x="371" y="0" on="1"/>
        <pt x="314" y="0" on="0"/>
        <pt x="291" y="63" on="1"/>
        <pt x="258" y="0" on="0"/>
        <pt x="211" y="0" on="1"/>
        <pt x="50" y="0" on="0"/>
        <pt x="50" y="160" on="1"/>
        <pt x="50" y="413" on="1"/>
        <pt x="50" y="520" on="0"/>
        <pt x="177" y="520" on="1"/>
        <pt x="210" y="520" on="0"/>
        <pt x="257" y="473" on="0"/>
        <pt x="257" y="440" on="1"/>
        <pt x="257" y="407" on="0"/>
        <pt x="234" y="383" on="1"/>
        <pt x="212" y="362" on="0"/>
        <pt x="182" y="360" on="1"/>
        <pt x="182" y="160" on="1"/>
        <pt x="182" y="106" on="0"/>
        <pt x="211" y="106" on="1"/>
        <pt x="240" y="106" on="0"/>
        <pt x="240" y="170" on="1"/>
        <pt x="240" y="250" on="1"/>
        <pt x="342" y="250" on="1"/>
        <pt x="342" y="170" on="1"/>
        <pt x="342" y="106" on="0"/>
        <pt x="371" y="106" on="1"/>
        <pt x="399" y="106" on="0"/>
        <pt x="399" y="160" on="1"/>
        <pt x="399" y="502" on="1"/>
        <pt x="399" y="523" on="0"/>
        <pt x="192" y="606" on="0"/>
        <pt x="132" y="662" on="0"/>
        <pt x="132" y="710" on="1"/>
        <pt x="132" y="768" on="0"/>
        <pt x="195" y="805" on="0"/>
        <pt x="228" y="805" on="1"/>
        <pt x="288" y="805" on="0"/>
        <pt x="342" y="778" on="1"/>
        <pt x="531" y="694" on="1"/>
        <pt x="495" y="622" on="1"/>
        <pt x="319" y="702" on="1"/>
        <pt x="255" y="728" on="0"/>
        <pt x="237" y="728" on="1"/>
        <pt x="229" y="728" on="0"/>
        <pt x="219" y="712" on="0"/>
        <pt x="219" y="707" on="1"/>
        <pt x="219" y="698" on="0"/>
        <pt x="234" y="680" on="0"/>
        <pt x="245" y="672" on="1"/>
        <pt x="450" y="577" on="1"/>
        <pt x="514" y="546" on="0"/>
        <pt x="531" y="500" on="1"/>
      </contour>
    </TTGlyph>
    <TTGlyph name="u0ED7" xMin="20" yMin="-205" xMax="524" yMax="520">
      <contour>
        <pt x="348" y="360" on="1"/>
        <pt x="348" y="414" on="0"/>
        <pt x="279" y="414" on="1"/>
        <pt x="210" y="414" on="0"/>
        <pt x="210" y="360" on="1"/>
        <pt x="210" y="120" on="1"/>
        <pt x="210" y="0" on="0"/>
        <pt x="100" y="0" on="1"/>
        <pt x="67" y="0" on="0"/>
        <pt x="20" y="46" on="0"/>
        <pt x="20" y="80" on="1"/>
        <pt x="20" y="113" on="0"/>
        <pt x="44" y="137" on="1"/>
        <pt x="59" y="152" on="0"/>
        <pt x="78" y="157" on="1"/>
        <pt x="78" y="363" on="1"/>
        <pt x="59" y="368" on="0"/>
        <pt x="44" y="384" on="1"/>
        <pt x="20" y="407" on="0"/>
        <pt x="20" y="440" on="1"/>
        <pt x="20" y="474" on="0"/>
        <pt x="67" y="520" on="0"/>
        <pt x="100" y="520" on="1"/>
        <pt x="142" y="520" on="0"/>
        <pt x="168" y="502" on="1"/>
        <pt x="213" y="520" on="0"/>
        <pt x="279" y="520" on="1"/>
        <pt x="480" y="520" on="0"/>
        <pt x="480" y="360" on="1"/>
        <pt x="480" y="-63" on="1"/>
        <pt x="480" y="-86" on="0"/>
        <pt x="509" y="-107" on="0"/>
        <pt x="524" y="-111" on="1"/>
        <pt x="524" y="-205" on="1"/>
        <pt x="413" y="-199" on="0"/>
        <pt x="348" y="-118" on="0"/>
        <pt x="348" y="-49" on="1"/>
      </contour>
    </TTGlyph>
    <TTGlyph name="u0ED8" xMin="50" yMin="-205" xMax="461" yMax="520">
      <contour>
        <pt x="358" y="-127" on="1"/>
        <pt x="358" y="-135" on="0"/>
        <pt x="363" y="-150" on="0"/>
        <pt x="374" y="-158" on="0"/>
        <pt x="379" y="-158" on="1"/>
        <pt x="383" y="-158" on="0"/>
        <pt x="394" y="-150" on="0"/>
        <pt x="400" y="-135" on="0"/>
        <pt x="400" y="-127" on="1"/>
        <pt x="400" y="-120" on="0"/>
        <pt x="394" y="-105" on="0"/>
        <pt x="383" y="-98" on="0"/>
        <pt x="379" y="-98" on="1"/>
        <pt x="374" y="-98" on="0"/>
        <pt x="363" y="-105" on="0"/>
        <pt x="358" y="-120" on="0"/>
      </contour>
      <contour>
        <pt x="329" y="-19" on="1"/>
        <pt x="329" y="12" on="1"/>
        <pt x="146" y="-78" on="0"/>
        <pt x="146" y="-98" on="1"/>
        <pt x="146" y="-115" on="0"/>
        <pt x="157" y="-121" on="0"/>
        <pt x="172" y="-121" on="1"/>
        <pt x="187" y="-121" on="0"/>
        <pt x="278" y="-68" on="0"/>
        <pt x="309" y="-39" on="1"/>
        <pt x="322" y="-28" on="0"/>
      </contour>
      <contour>
        <pt x="461" y="0" on="1"/>
        <pt x="445" y="-31" on="0"/>
        <pt x="419" y="-52" on="1"/>
        <pt x="407" y="-62" on="1"/>
        <pt x="412" y="-64" on="0"/>
        <pt x="417" y="-66" on="1"/>
        <pt x="437" y="-76" on="0"/>
        <pt x="461" y="-111" on="0"/>
        <pt x="461" y="-131" on="1"/>
        <pt x="461" y="-150" on="0"/>
        <pt x="438" y="-185" on="0"/>
        <pt x="398" y="-205" on="0"/>
        <pt x="375" y="-205" on="1"/>
        <pt x="352" y="-205" on="0"/>
        <pt x="310" y="-185" on="0"/>
        <pt x="288" y="-150" on="0"/>
        <pt x="288" y="-131" on="1"/>
        <pt x="288" y="-126" on="1"/>
        <pt x="276" y="-133" on="0"/>
        <pt x="264" y="-142" on="1"/>
        <pt x="207" y="-185" on="0"/>
        <pt x="173" y="-185" on="1"/>
        <pt x="100" y="-185" on="0"/>
        <pt x="50" y="-134" on="0"/>
        <pt x="50" y="-98" on="1"/>
        <pt x="50" y="-30" on="0"/>
        <pt x="329" y="98" on="1"/>
        <pt x="329" y="360" on="1"/>
        <pt x="329" y="414" on="0"/>
        <pt x="320" y="414" on="1"/>
        <pt x="293" y="414" on="0"/>
        <pt x="271" y="360" on="1"/>
        <pt x="240" y="360" on="1"/>
        <pt x="218" y="414" on="0"/>
        <pt x="191" y="414" on="1"/>
        <pt x="182" y="414" on="0"/>
        <pt x="182" y="360" on="1"/>
        <pt x="182" y="240" on="1"/>
        <pt x="212" y="238" on="0"/>
        <pt x="234" y="217" on="1"/>
        <pt x="257" y="193" on="0"/>
        <pt x="257" y="160" on="1"/>
        <pt x="257" y="127" on="0"/>
        <pt x="210" y="80" on="0"/>
        <pt x="177" y="80" on="1"/>
        <pt x="50" y="80" on="0"/>
        <pt x="50" y="187" on="1"/>
        <pt x="50" y="360" on="1"/>
        <pt x="50" y="520" on="0"/>
        <pt x="151" y="520" on="1"/>
        <pt x="225" y="520" on="0"/>
        <pt x="256" y="457" on="1"/>
        <pt x="286" y="520" on="0"/>
        <pt x="360" y="520" on="1"/>
        <pt x="461" y="520" on="0"/>
        <pt x="461" y="360" on="1"/>
      </contour>
    </TTGlyph>
    <TTGlyph name="u0ED9" xMin="50" yMin="0" xMax="650" yMax="520">
      <contour>
        <pt x="50" y="360" on="1"/>
        <pt x="50" y="520" on="0"/>
        <pt x="238" y="520" on="1"/>
        <pt x="426" y="520" on="0"/>
        <pt x="426" y="360" on="1"/>
        <pt x="426" y="160" on="1"/>
        <pt x="426" y="106" on="0"/>
        <pt x="485" y="106" on="1"/>
        <pt x="518" y="106" on="0"/>
        <pt x="518" y="160" on="1"/>
        <pt x="518" y="520" on="1"/>
        <pt x="650" y="520" on="1"/>
        <pt x="650" y="160" on="1"/>
        <pt x="650" y="0" on="0"/>
        <pt x="485" y="0" on="1"/>
        <pt x="294" y="0" on="0"/>
        <pt x="294" y="160" on="1"/>
        <pt x="294" y="360" on="1"/>
        <pt x="294" y="414" on="0"/>
        <pt x="238" y="414" on="1"/>
        <pt x="182" y="414" on="0"/>
        <pt x="182" y="360" on="1"/>
        <pt x="182" y="160" on="1"/>
        <pt x="212" y="158" on="0"/>
        <pt x="234" y="137" on="1"/>
        <pt x="257" y="113" on="0"/>
        <pt x="257" y="80" on="1"/>
        <pt x="257" y="47" on="0"/>
        <pt x="210" y="0" on="0"/>
        <pt x="177" y="0" on="1"/>
        <pt x="50" y="0" on="0"/>
        <pt x="50" y="107" on="1"/>
      </contour>
    </TTGlyph>
    <TTGlyph name="u0EDC" xMin="50" yMin="0" xMax="861" yMax="520">
      <contour>
        <pt x="441" y="160" on="1"/>
        <pt x="441" y="0" on="0"/>
        <pt x="246" y="0" on="1"/>
        <pt x="50" y="0" on="0"/>
        <pt x="50" y="160" on="1"/>
        <pt x="50" y="247" on="0"/>
        <pt x="73" y="288" on="1"/>
        <pt x="93" y="325" on="0"/>
        <pt x="101" y="365" on="1"/>
        <pt x="86" y="371" on="0"/>
        <pt x="74" y="384" on="1"/>
        <pt x="50" y="407" on="0"/>
        <pt x="50" y="440" on="1"/>
        <pt x="50" y="474" on="0"/>
        <pt x="97" y="520" on="0"/>
        <pt x="130" y="520" on="1"/>
        <pt x="239" y="520" on="0"/>
        <pt x="239" y="420" on="1"/>
        <pt x="239" y="347" on="0"/>
        <pt x="182" y="213" on="0"/>
        <pt x="182" y="160" on="1"/>
        <pt x="182" y="106" on="0"/>
        <pt x="246" y="106" on="1"/>
        <pt x="309" y="106" on="0"/>
        <pt x="309" y="160" on="1"/>
        <pt x="309" y="360" on="1"/>
        <pt x="309" y="414" on="0"/>
        <pt x="261" y="444" on="1"/>
        <pt x="281" y="520" on="1"/>
        <pt x="338" y="510" on="0"/>
        <pt x="374" y="490" on="1"/>
        <pt x="423" y="520" on="0"/>
        <pt x="480" y="520" on="1"/>
        <pt x="651" y="520" on="0"/>
        <pt x="651" y="360" on="1"/>
        <pt x="651" y="160" on="1"/>
        <pt x="651" y="106" on="0"/>
        <pt x="690" y="106" on="1"/>
        <pt x="729" y="106" on="0"/>
        <pt x="729" y="160" on="1"/>
        <pt x="729" y="520" on="1"/>
        <pt x="861" y="520" on="1"/>
        <pt x="861" y="160" on="1"/>
        <pt x="861" y="0" on="0"/>
        <pt x="690" y="0" on="1"/>
        <pt x="633" y="0" on="0"/>
        <pt x="584" y="30" on="1"/>
        <pt x="548" y="10" on="0"/>
        <pt x="491" y="0" on="1"/>
        <pt x="471" y="76" on="1"/>
        <pt x="519" y="106" on="0"/>
        <pt x="519" y="160" on="1"/>
        <pt x="519" y="360" on="1"/>
        <pt x="519" y="414" on="0"/>
        <pt x="480" y="414" on="1"/>
        <pt x="441" y="414" on="0"/>
        <pt x="441" y="360" on="1"/>
      </contour>
    </TTGlyph>
    <TTGlyph name="u0EDD" xMin="50" yMin="0" xMax="861" yMax="520">
      <contour>
        <pt x="519" y="360" on="1"/>
        <pt x="519" y="414" on="0"/>
        <pt x="480" y="414" on="1"/>
        <pt x="441" y="414" on="0"/>
        <pt x="441" y="360" on="1"/>
        <pt x="441" y="160" on="1"/>
        <pt x="441" y="0" on="0"/>
        <pt x="246" y="0" on="1"/>
        <pt x="50" y="0" on="0"/>
        <pt x="50" y="160" on="1"/>
        <pt x="50" y="247" on="0"/>
        <pt x="73" y="288" on="1"/>
        <pt x="93" y="325" on="0"/>
        <pt x="101" y="365" on="1"/>
        <pt x="86" y="371" on="0"/>
        <pt x="74" y="384" on="1"/>
        <pt x="50" y="407" on="0"/>
        <pt x="50" y="440" on="1"/>
        <pt x="50" y="474" on="0"/>
        <pt x="97" y="520" on="0"/>
        <pt x="130" y="520" on="1"/>
        <pt x="239" y="520" on="0"/>
        <pt x="239" y="420" on="1"/>
        <pt x="239" y="347" on="0"/>
        <pt x="182" y="213" on="0"/>
        <pt x="182" y="160" on="1"/>
        <pt x="182" y="106" on="0"/>
        <pt x="246" y="106" on="1"/>
        <pt x="309" y="106" on="0"/>
        <pt x="309" y="160" on="1"/>
        <pt x="309" y="360" on="1"/>
        <pt x="309" y="414" on="0"/>
        <pt x="261" y="444" on="1"/>
        <pt x="281" y="520" on="1"/>
        <pt x="338" y="510" on="0"/>
        <pt x="374" y="490" on="1"/>
        <pt x="423" y="520" on="0"/>
        <pt x="480" y="520" on="1"/>
        <pt x="651" y="520" on="0"/>
        <pt x="651" y="360" on="1"/>
        <pt x="651" y="160" on="1"/>
        <pt x="651" y="106" on="0"/>
        <pt x="690" y="106" on="1"/>
        <pt x="729" y="106" on="0"/>
        <pt x="729" y="160" on="1"/>
        <pt x="729" y="520" on="1"/>
        <pt x="861" y="520" on="1"/>
        <pt x="861" y="160" on="1"/>
        <pt x="861" y="0" on="0"/>
        <pt x="690" y="0" on="1"/>
        <pt x="654" y="0" on="0"/>
        <pt x="609" y="18" on="1"/>
        <pt x="583" y="0" on="0"/>
        <pt x="541" y="0" on="1"/>
        <pt x="508" y="0" on="0"/>
        <pt x="461" y="46" on="0"/>
        <pt x="461" y="80" on="1"/>
        <pt x="461" y="113" on="0"/>
        <pt x="485" y="136" on="1"/>
        <pt x="500" y="152" on="0"/>
        <pt x="519" y="157" on="1"/>
      </contour>
    </TTGlyph>
    <TTGlyph name="u0EDE" xMin="10" yMin="0" xMax="626" yMax="520">
      <contour>
        <pt x="348" y="345" on="1"/>
        <pt x="348" y="360" on="1"/>
        <pt x="348" y="414" on="0"/>
        <pt x="279" y="414" on="1"/>
        <pt x="210" y="414" on="0"/>
        <pt x="210" y="360" on="1"/>
        <pt x="210" y="120" on="1"/>
        <pt x="210" y="0" on="0"/>
        <pt x="100" y="0" on="1"/>
        <pt x="67" y="0" on="0"/>
        <pt x="20" y="46" on="0"/>
        <pt x="20" y="80" on="1"/>
        <pt x="20" y="113" on="0"/>
        <pt x="44" y="137" on="1"/>
        <pt x="59" y="152" on="0"/>
        <pt x="78" y="157" on="1"/>
        <pt x="78" y="360" on="1"/>
        <pt x="78" y="394" on="0"/>
        <pt x="10" y="424" on="1"/>
        <pt x="50" y="520" on="1"/>
        <pt x="107" y="510" on="0"/>
        <pt x="143" y="490" on="1"/>
        <pt x="192" y="520" on="0"/>
        <pt x="279" y="520" on="1"/>
        <pt x="480" y="520" on="0"/>
        <pt x="480" y="360" on="1"/>
        <pt x="480" y="235" on="1"/>
        <pt x="526" y="245" on="0"/>
        <pt x="526" y="333" on="1"/>
        <pt x="626" y="333" on="1"/>
        <pt x="626" y="151" on="0"/>
        <pt x="480" y="143" on="1"/>
        <pt x="480" y="0" on="1"/>
        <pt x="348" y="0" on="1"/>
        <pt x="348" y="144" on="1"/>
        <pt x="227" y="156" on="0"/>
        <pt x="227" y="276" on="1"/>
        <pt x="227" y="309" on="0"/>
        <pt x="273" y="356" on="0"/>
        <pt x="307" y="356" on="1"/>
        <pt x="330" y="356" on="0"/>
      </contour>
    </TTGlyph>
    <TTGlyph name="u0EDF" xMin="50" yMin="0" xMax="606" yMax="520">
      <contour>
        <pt x="461" y="216" on="1"/>
        <pt x="461" y="160" on="1"/>
        <pt x="461" y="0" on="0"/>
        <pt x="256" y="0" on="1"/>
        <pt x="50" y="0" on="0"/>
        <pt x="50" y="160" on="1"/>
        <pt x="50" y="226" on="0"/>
        <pt x="104" y="254" on="1"/>
        <pt x="50" y="282" on="0"/>
        <pt x="50" y="348" on="1"/>
        <pt x="50" y="413" on="1"/>
        <pt x="50" y="520" on="0"/>
        <pt x="177" y="520" on="1"/>
        <pt x="210" y="520" on="0"/>
        <pt x="257" y="473" on="0"/>
        <pt x="257" y="440" on="1"/>
        <pt x="257" y="407" on="0"/>
        <pt x="234" y="383" on="1"/>
        <pt x="212" y="362" on="0"/>
        <pt x="182" y="360" on="1"/>
        <pt x="182" y="348" on="1"/>
        <pt x="182" y="307" on="0"/>
        <pt x="263" y="307" on="1"/>
        <pt x="263" y="201" on="1"/>
        <pt x="182" y="201" on="0"/>
        <pt x="182" y="160" on="1"/>
        <pt x="182" y="106" on="0"/>
        <pt x="256" y="106" on="1"/>
        <pt x="329" y="106" on="0"/>
        <pt x="329" y="160" on="1"/>
        <pt x="329" y="228" on="1"/>
        <pt x="268" y="256" on="0"/>
        <pt x="268" y="349" on="1"/>
        <pt x="268" y="382" on="0"/>
        <pt x="288" y="406" on="1"/>
        <pt x="305" y="426" on="0"/>
        <pt x="329" y="429" on="1"/>
        <pt x="329" y="520" on="1"/>
        <pt x="461" y="520" on="1"/>
        <pt x="461" y="306" on="1"/>
        <pt x="470" y="306" on="1"/>
        <pt x="521" y="306" on="0"/>
        <pt x="521" y="406" on="1"/>
        <pt x="606" y="406" on="1"/>
        <pt x="606" y="216" on="0"/>
        <pt x="470" y="216" on="1"/>
      </contour>
    </TTGlyph>
</ttFont>
